<?xml version="1.0" encoding="UTF-8" standalone="no"?>
<svg
   xmlns:dc="http://purl.org/dc/elements/1.1/"
   xmlns:cc="http://creativecommons.org/ns#"
   xmlns:rdf="http://www.w3.org/1999/02/22-rdf-syntax-ns#"
   xmlns:svg="http://www.w3.org/2000/svg"
   xmlns="http://www.w3.org/2000/svg"
   xmlns:sodipodi="http://sodipodi.sourceforge.net/DTD/sodipodi-0.dtd"
   xmlns:inkscape="http://www.inkscape.org/namespaces/inkscape"
   id="svg8"
   width="1062.8656"
   height="1061.0674"
   version="1.1"
   viewBox="0 0 281.21196 280.74504"
   sodipodi:docname="logo-background.svg"
   inkscape:version="0.92.4 5da689c313, 2019-01-14">
  <defs
     id="defs79" />
  <sodipodi:namedview
     pagecolor="#ffffff"
     bordercolor="#666666"
     borderopacity="1"
     objecttolerance="10"
     gridtolerance="10"
     guidetolerance="10"
     inkscape:pageopacity="0"
     inkscape:pageshadow="2"
     inkscape:window-width="1920"
     inkscape:window-height="1152"
     id="namedview77"
     showgrid="false"
     fit-margin-top="5"
     fit-margin-left="5"
     fit-margin-right="5"
     fit-margin-bottom="5"
     inkscape:zoom="0.52538573"
     inkscape:cx="720.86508"
     inkscape:cy="689.55376"
     inkscape:window-x="0"
     inkscape:window-y="366"
     inkscape:window-maximized="1"
     inkscape:current-layer="svg8" />
  <metadata
     id="metadata5">
    <rdf:RDF>
      <cc:Work
         rdf:about="">
        <dc:format>image/svg+xml</dc:format>
        <dc:type
           rdf:resource="http://purl.org/dc/dcmitype/StillImage" />
        <dc:title></dc:title>
        <dc:creator>
          <cc:Agent>
            <dc:title>David Lettier</dc:title>
          </cc:Agent>
        </dc:creator>
        <dc:rights>
          <cc:Agent>
            <dc:title>(C) 2020 David Lettier</dc:title>
          </cc:Agent>
        </dc:rights>
      </cc:Work>
    </rdf:RDF>
  </metadata>
  <g
     id="g4894"
     style="opacity:0.025">
    <path
       style="opacity:1;fill:#2bbb92;fill-rule:evenodd;stroke:#2bbb92;stroke-width:7.18669987;stroke-linejoin:round;stroke-dashoffset:1107.40002441"
       inkscape:connector-curvature="0"
       d="m 183.0977,68.11565 -5.9736,-31.762579 37.84681,0.186595 17.42784,33.178103 z"
       id="path894" />
    <path
       style="opacity:1;fill:#29b08a;fill-rule:evenodd;stroke:#29b08a;stroke-width:7.18669987;stroke-linejoin:round;stroke-dashoffset:1107.40002441"
       inkscape:connector-curvature="0"
       d="M 234.93864,69.866789 252.86362,29.31776 231.65393,7.051493 218.86885,38.013098 Z"
       id="path896" />
    <path
       style="opacity:1;fill:#74d191;fill-rule:evenodd;stroke:#74d191;stroke-width:7.18660021;stroke-linejoin:round;stroke-dashoffset:1107.40002441"
       inkscape:connector-curvature="0"
       d="M 214.97005,36.540166 231.65356,7.052859 199.13615,5.183057 177.1241,36.353071 Z"
       id="path892" />
    <path
       style="opacity:1;fill:none;stroke:#bbe9c9;stroke-width:2.64580011;stroke-linejoin:round;stroke-dashoffset:1107.40002441"
       inkscape:connector-curvature="0"
       d="m 216.14085,38.468053 c 1.07607,0.08941 19.94537,-31.751595 17.59489,-32.33675 0.24415,-3.365116 -36.38988,-4.113115 -35.79382,-3.012717 -1.13302,0.240549 -24.80413,32.527989 -23.15814,33.676923 -3.87686,4.280279 39.0924,3.14402 41.35657,1.671678 z"
       id="path991" />
    <path
       style="opacity:1;fill:#ffffff"
       inkscape:connector-curvature="0"
       d="m 208.35405,26.140929 -9.3311,-8.676939 -3.22653,5.64968 -2.53467,-0.544978 5.18912,-9.086178 2.48393,0.53409 9.3311,8.67694 3.39287,-5.940975 2.53467,0.544978 -5.35542,9.377336 z"
       id="path1157" />
    <path
       inkscape:connector-curvature="0"
       style="opacity:1;fill:#2b8b7c;paint-order:markers stroke fill"
       d="m 196.30808,50.076699 a 5.2989,5.4981 52.32 0 1 7.64475,0.358683 5.2989,5.4981 52.32 0 1 -0.63446,7.591494 5.2989,5.4981 52.32 0 1 -7.64492,-0.357194 5.2989,5.4981 52.32 0 1 0.63301,-7.591587"
       id="path989" />
    <path
       style="opacity:1;fill:none;stroke:#29b08a;stroke-width:7.93429995;stroke-linecap:round;stroke-linejoin:round;stroke-dashoffset:1107.40002441"
       inkscape:connector-curvature="0"
       d="m 85.237051,240.68602 c 0,0 -37.351698,-144.631033 113.596449,-186.505177"
       id="path890" />
    <path
       style="opacity:1;fill:none;stroke:#74d191;stroke-width:4.76249981;stroke-linecap:round;stroke-linejoin:round;stroke-dashoffset:1107.40002441"
       inkscape:connector-curvature="0"
       d="M 80.501741,204.92224 C 79.319651,188.88119 78.113501,82.759678 198.60418,52.681649"
       id="path927" />
    <path
       style="opacity:1;fill:#2bbb92;fill-rule:evenodd;stroke:#2bbb92;stroke-width:7.93429995;stroke-linejoin:round;stroke-dashoffset:1107.40002441"
       inkscape:connector-curvature="0"
       d="m 47.114573,274.21996 -6.953822,-34.98638 41.80009,-0.20212 19.618649,36.4235 z"
       id="path872" />
    <path
       style="opacity:1;fill:#29b08a;fill-rule:evenodd;stroke:#29b08a;stroke-width:7.93429995;stroke-linejoin:round;stroke-dashoffset:1107.40002441"
       inkscape:connector-curvature="0"
       d="m 103.08457,274.24883 20.64529,-43.59531 -22.31718,-25.51128 -15.377819,33.90883 z"
       id="path876" />
    <path
       style="opacity:1;fill:#74d191;fill-rule:evenodd;stroke:#74d191;stroke-width:7.93429995;stroke-linejoin:round;stroke-dashoffset:1107.40002441"
       inkscape:connector-curvature="0"
       d="M 81.962201,239.03182 101.4132,205.14194 64.123472,204.60023 40.161251,239.23445 Z"
       id="path874" />
    <path
       style="opacity:1;fill:#ffffff"
       inkscape:connector-curvature="0"
       d="m 59.576229,220.71018 2.688237,-4.81524 21.694755,0.33442 -1.98464,3.55489 -4.26035,-0.15153 0.0561,0.0115 -2.255233,4.03962 3.482563,1.43277 -1.84032,3.29628 z m 15.294258,-1.19157 -10.590681,-0.4026 -0.03613,0.0646 8.840661,3.53728 z"
       id="path1154" />
    <path
       style="opacity:1;fill:none;stroke:#bbe9c9;stroke-width:2.7960999;stroke-linejoin:round;stroke-dashoffset:1107.40002441"
       inkscape:connector-curvature="0"
       d="m 83.263741,241.29415 c 1.1372,0.0945 22.928509,-36.77866 20.444789,-37.39659 0.23786,-3.54461 -39.949203,-2.35605 -41.100087,-2.01143 -1.399398,-0.89709 -25.919786,33.84761 -24.967233,37.43148 -3.399244,5.31754 43.230361,3.53318 45.622531,1.97654 z"
       id="path993" />
    <path
       style="opacity:1;fill:#3c5094"
       inkscape:connector-curvature="0"
       d="m 18.413704,131.24659 q -1.802884,4.27671 -3.338158,6.48154 -1.535274,2.20483 -2.631723,2.31992 -1.50758,0.1582 -1.870691,-3.30239 -0.352304,-3.35781 0.326613,-6.13089 0.678917,-2.77308 2.210602,-5.01232 1.493829,-2.26981 3.706983,-3.95692 2.243827,-1.72498 4.956281,-2.94487 2.743134,-1.25775 5.848617,-2.0339 3.105463,-0.77618 6.428972,-1.12489 3.871673,-0.40627 7.838802,-0.2336 3.963503,0.13839 7.668897,0.78872 3.705444,0.65042 6.977928,1.79653 3.268908,1.11191 5.751476,2.65265 2.513186,1.50296 4.030902,3.42212 1.551961,1.91556 1.785673,4.14268 0.276813,2.63825 -0.618487,5.33015 -0.86097,2.68836 -3.108635,5.03728 -2.21691,2.31101 -5.914181,4.04994 -3.662981,1.73533 -8.997194,2.39901 3.392002,-0.35588 6.04254,0.47438 2.646875,0.79612 4.554222,2.46655 1.903668,1.63617 3.029877,4.116 1.1226,2.44554 1.399472,5.08375 0.226487,2.15855 -0.122282,4.4468 -0.348796,2.28827 -1.298021,4.46617 -0.949175,2.17798 -2.506102,4.1773 -1.560452,1.96502 -3.78436,3.5493 -2.189691,1.58074 -5.057184,2.6437 -2.863883,1.09721 -6.393039,1.46753 -2.227122,0.23371 -4.72634,0.18414 -2.495659,-0.0152 -5.085034,-0.26314 -2.551556,-0.21722 -5.056119,-0.64725 -2.504564,-0.43004 -4.745789,-0.99155 -0.984528,-0.13917 -1.788633,-0.53981 -0.769853,-0.40418 -0.899292,-1.63765 -0.596759,-5.68762 -0.948458,-11.67838 -0.317219,-5.99404 -0.03751,-11.91217 0.276082,-5.95242 1.330591,-10.42775 1.05456,-4.47525 3.402099,-8.8438 2.25654,-1.93415 4.243729,-2.14264 2.50117,-0.26245 4.474872,2.37091 -1.353171,2.28963 -2.210602,5.01232 -0.823151,2.71906 -1.193478,4.80164 -0.370326,2.08257 -0.537252,5.11385 -0.132645,3.02765 -0.108344,5.90014 -0.0023,1.62832 0.06914,3.62995 0.102117,1.96373 0.197085,3.85896 0.09494,1.89525 0.224163,3.78686 0.159891,1.85382 0.339678,3.56694 0.02876,0.2741 0.0791,0.75378 0.05033,0.47968 0.172786,0.98644 0.156712,0.50315 0.340507,0.93419 0.180196,0.39677 0.47587,0.57359 2.161925,0.46597 4.610679,0.69393 2.448753,0.22797 4.84717,-0.0237 2.912368,-0.30563 5.58147,-1.27841 2.665544,-1.00714 4.631626,-2.73759 1.962557,-1.76475 2.982197,-4.26188 1.050324,-2.53499 0.662,-6.23539 -0.208546,-1.98727 -1.098915,-3.21011 -0.893978,-1.25714 -2.220934,-2.01857 -1.292652,-0.76496 -2.922644,-1.11357 -1.599366,-0.38638 -3.287082,-0.62499 -1.657148,-0.27647 -3.276341,-0.52219 -1.584913,-0.24935 -2.883135,-0.73674 -1.267526,-0.5252 -2.118363,-1.37111 -0.854469,-0.88031 -1.012622,-2.38779 -0.0755,-0.71952 -0.0609,-1.24067 0.04527,-0.559 0.317681,-0.93398 0.306678,-0.37858 0.905405,-0.61459 0.633018,-0.23963 1.72946,-0.35469 1.47329,-0.15459 2.686898,-0.14336 1.244277,-0.0267 2.648993,-0.17401 3.2892,-0.34514 5.844759,-1.40998 2.586218,-1.10274 4.292607,-2.66738 1.740674,-1.56827 2.543776,-3.48846 0.833796,-1.95802 0.614484,-4.04808 -0.143802,-1.37051 -1.050475,-2.41847 -0.91029,-1.08225 -2.442828,-1.82211 -1.501833,-0.77767 -3.492492,-1.26157 -1.990649,-0.4839 -4.298744,-0.69204 -2.311721,-0.24242 -4.834458,-0.18553 -2.526363,0.0226 -5.096006,0.29226 -4.145838,0.435 -6.412634,0.94999 -3.116209,0.67337 -5.778122,1.7148 -2.631253,1.00354 -4.633355,2.3914 -1.967812,1.38425 -2.909634,2.97256 z"
       id="path1039" />
    <path
       style="opacity:1;fill:#3c5094"
       inkscape:connector-curvature="0"
       d="m 81.410311,168.76592 q -1.81996,0.38572 -3.73964,-0.86265 -1.893142,-1.28914 -3.644113,-3.73539 -1.717284,-2.45334 -3.141266,-5.84921 -1.397438,-3.43672 -2.225939,-7.34624 -0.635684,-2.99952 -0.940383,-6.59739 -0.311885,-3.6316 -0.262073,-7.55113 0.04973,-3.91947 0.395659,-7.93709 0.379652,-4.02463 1.093201,-7.80312 0.747218,-3.78558 1.830318,-7.1494 1.076016,-3.39749 2.491935,-6.02184 1.408836,-2.65803 3.193178,-4.37446 1.784473,-1.71641 3.907653,-2.16634 1.4492,-0.30712 2.53568,0.16693 1.07937,0.44036 1.84719,1.40458 0.76778,0.96418 1.26286,2.30313 0.52162,1.2981 0.82158,2.71356 0.67137,3.16805 0.6299,6.62803 -0.0149,3.41915 -0.55478,7.01988 -0.51328,3.55999 -1.4239,7.23934 -0.91063,3.67935 -1.96322,7.3536 -1.05968,3.64059 -2.16738,7.2208 -1.08111,3.53945 -1.98862,6.90119 -0.0971,0.37274 -0.18502,0.95483 -0.0542,0.57496 -0.087,1.25103 -0.04,0.64235 -0.0585,1.3858 -0.0185,0.74344 0.0232,1.43896 l 0.1,0.47184 q 0.18571,0.87626 0.53278,1.6831 0.37366,0.766 0.78609,1.38294 0.40531,0.58322 0.79434,0.92333 0.38189,0.30644 0.65151,0.24931 0.64035,-0.13571 1.39204,-0.57673 0.78543,-0.44815 1.60252,-1.07915 0.84371,-0.67184 1.69965,-1.45191 0.84883,-0.81379 1.63018,-1.61326 1.82323,-1.86546 3.75592,-4.21195 l 4.2635,6.49178 q -2.5424,2.79264 -5.11742,5.09917 -1.1307,0.97916 -2.36253,1.97978 -1.20521,0.95972 -2.47277,1.79183 -1.26757,0.83211 -2.51049,1.4477 -1.25014,0.5819 -2.39603,0.82475 z m -5.680228,-26.96905 q 0.945237,-3.0176 1.916098,-6.74501 1.00454,-3.73449 1.76408,-7.62834 0.75953,-3.89384 1.12172,-7.66832 0.3551,-3.80815 0.008,-6.93933 -0.20714,-0.97736 -0.41739,-1.63714 -0.1837,-0.70061 -0.45336,-0.64344 -0.97737,0.20713 -1.85187,1.73067 -0.84794,1.48272 -1.536631,3.88247 -0.655023,2.39267 -1.09271,5.47878 -0.403932,3.07897 -0.527125,6.48579 -0.123192,3.40682 0.133549,6.94451 0.249609,3.50394 0.935199,6.73941 z"
       id="path1041" />
    <path
       style="opacity:1;fill:#3c5094"
       inkscape:connector-curvature="0"
       d="m 104.67746,162.32781 q -3.08017,0.99978 -5.768389,0.64085 -2.65537,-0.36964 -4.80176,-1.7375 -2.15701,-1.40065 -3.74109,-3.60296 -1.56202,-2.24577 -2.44478,-4.96546 -0.59563,-1.83503 -0.72646,-4.58147 -0.14151,-2.7793 -0.0587,-4.97933 0.11551,-2.21074 0.65527,-4.34183 0.52916,-2.16389 1.56766,-3.98595 1.06062,-1.86554 2.64035,-3.24757 1.60189,-1.42545 3.86286,-2.15933 1.83503,-0.59564 3.59935,-0.51635 1.764309,0.0793 3.262119,0.78836 1.52,0.66568 2.66465,1.96031 1.14463,1.29463 1.75084,3.16235 0.65941,2.03157 0.13487,4.9908 -0.49177,2.94863 -1.6762,5.32514 -1.18451,2.37655 -3.18472,4.5833 -1.96745,2.19608 -4.562999,3.90785 0.77871,0.72521 1.42888,1.16609 0.68297,0.43028 1.280869,0.59845 0.59789,0.16816 1.1647,0.12903 0.5996,-0.0497 1.22223,-0.25184 1.96612,-0.63818 3.87347,-2.12655 1.94021,-1.49906 3.62163,-3.34877 1.68151,-1.84973 3.06978,-3.82158 1.37767,-2.0046 2.25144,-3.66458 l 5.65232,3.01889 q -1.91573,3.91786 -4.41524,7.26459 -1.08993,1.44038 -2.41986,2.92247 -1.29718,1.47143 -2.85483,2.8101 -1.53549,1.29524 -3.31992,2.38153 -1.76227,1.04285 -3.72838,1.68105 z m -9.357049,-13.98629 q 1.17961,-0.38286 2.36446,-1.41944 1.20693,-1.07993 2.07818,-2.41308 0.904009,-1.34382 1.529709,-3.32167 0.6257,-1.97785 0.2854,-3.02647 -0.47861,-1.47455 -1.34407,-2.244 -0.832759,-0.78014 -1.619149,-0.52485 -1.409,0.45734 -2.2547,1.31134 -0.81283,0.84335 -1.2245,1.91871 -0.38946,1.03192 -0.46444,2.25157 -0.0528,1.17621 -0.0994,2.92991 -0.0138,1.74301 0.25043,2.78016 0.26417,1.03705 0.49816,1.75794 z"
       id="path1043" />
    <path
       style="opacity:1;fill:#3c5094"
       inkscape:connector-curvature="0"
       d="m 116.30679,150.73038 q -1.11134,-1.98369 -2.319,-4.70309 -1.2245,-2.74952 -2.5982,-6.04728 -1.39057,-3.32787 -2.33736,-6.07502 -0.94676,-2.74718 -1.51946,-4.75618 -0.44396,-1.56776 -0.0342,-3.02149 0.43977,-1.47049 2.06275,-2.37981 1.623,-0.90929 2.80984,-0.27103 1.18682,0.6382 2.11297,2.29129 0.25229,0.451 0.6002,1.28276 0.3308,0.8019 0.7025,1.81779 0.38495,0.96905 0.79031,2.04502 0.38855,1.04596 0.9455,2.39248 0.57016,1.29964 0.83362,1.98134 0.24661,0.65163 0.36447,0.86201 l 0.60111,-0.33677 q -0.005,-0.43165 -0.0183,-1.37186 -0.0302,-0.97029 -0.29393,-2.6391 -0.26368,-1.66882 -0.28193,-3.04072 -0.005,-1.41874 -0.033,-2.66677 -0.0447,-1.27807 -0.0449,-2.26522 -1.8e-4,-0.98712 0.008,-1.46563 0.0525,-2.16189 0.94794,-3.45333 0.89552,-1.2915 2.39829,-2.13343 1.50277,-0.84193 3.08161,-0.0679 1.60894,0.75717 2.85492,2.98125 0.18513,0.33066 0.47278,1.19628 0.31758,0.8488 0.71338,2.04868 0.39581,1.19988 1.08513,3.06461 0.71936,1.84789 1.26668,3.31822 0.54733,1.47032 1.13795,2.87697 0.62067,1.38976 1.2437,2.50183 1.044,1.86345 2.16838,2.81309 1.1544,0.93277 2.14628,0.37708 0.36065,-0.2021 0.87031,-0.84299 0.78974,-0.91633 0.90874,-1.33841 0.74991,-1.76271 0.82689,-1.76639 0.107,-0.0205 1.34015,-2.33039 1.54574,-2.8799 3.63575,-6.97309 l 3.74177,6.74924 -0.86287,1.98405 q -0.0961,0.2513 -1.94962,3.14576 -2.67207,4.18225 -3.39801,5.14188 -1.75493,2.36537 -2.24184,2.83562 -1.23333,1.3228 -2.88643,2.24895 -1.65302,0.92609 -4.1254,-0.8084 -2.45916,-1.78138 -5.03548,-6.37991 -1.01033,-1.80334 -1.93171,-4.01182 -0.93825,-2.23859 -1.92467,-4.84509 l -0.48088,0.26944 0.88138,20.04019 q 0.0761,1.61596 -0.40953,2.44088 -0.49881,0.8718 -1.49067,1.42749 -1.23227,0.69043 -2.26991,0.60039 -1.05448,-0.12003 -1.96361,-0.75586 -0.89586,-0.68274 -1.66916,-1.7106 -0.76008,-1.07474 -1.43361,-2.27695 z"
       id="path1045" />
    <path
       style="opacity:1;fill:#3c5094"
       inkscape:connector-curvature="0"
       d="m 139.89226,108.84162 q -0.73534,2.41756 -0.612,4.9726 0.12141,2.50627 1.47692,5.4037 1.37886,2.87205 2.52531,4.77797 1.14645,1.90592 2.41069,3.07595 0.50569,0.468 1.10499,0.83486 0.62269,0.34158 1.30804,0.41255 0.68535,0.071 1.45303,-0.25129 0.76767,-0.32227 1.58665,-1.20723 0.4212,-0.45512 0.59146,-1.09556 0.19364,-0.66573 0.21404,-1.3979 -0.005,-0.75556 -0.13241,-1.53079 -0.12942,-0.82387 -0.35431,-1.59527 -0.50791,-1.78441 -1.43619,-3.7231 -0.42419,-0.25175 -1.22951,-0.90315 -0.83062,-0.67483 -2.42163,-2.10038 -1.61635,-1.44895 -2.65112,-2.35968 -1.03477,-0.91073 -1.89255,-1.6576 -0.83438,-0.77216 -1.38878,-1.23831 -0.55437,-0.46612 -0.55249,-0.41743 z m 31.52249,-3.12144 q -0.27077,3.08222 -0.79811,5.83303 -0.22347,1.15446 -0.51711,2.38475 -0.31896,1.2069 -0.69035,2.31827 -0.3967,1.08801 -0.87113,2.05717 -0.47632,0.92046 -1.0613,1.55255 -0.3276,0.35399 -1.13452,0.92157 -0.7835,0.54228 -2.01086,0.95549 -1.22922,0.36452 -2.88636,0.37987 -1.63373,-0.01 -3.66181,-0.76024 0.0445,1.77796 -0.10397,3.61211 -0.15031,1.78546 -0.59646,3.48492 -0.4228,1.67409 -1.11993,3.18821 -0.69905,1.46542 -1.77544,2.62846 -1.52102,1.64351 -3.35213,2.20194 -1.8078,0.5332 -3.71971,0.26587 -1.91376,-0.31594 -3.77993,-1.29203 -1.84277,-1.00137 -3.43574,-2.47548 -1.61823,-1.49763 -2.88732,-3.42316 -1.27097,-1.9742 -2.08795,-4.18546 -0.81887,-2.25995 -1.6237,-4.78849 -0.78148,-2.55392 -0.69792,-5.43384 0.10693,-2.90518 0.96679,-5.25446 0.85987,-2.34927 2.46122,-4.43464 -3.16621,-3.07103 -5.22671,-5.916733 -2.0605,-2.845699 -4.14542,-6.324282 -2.08492,-3.478583 -3.48269,-6.837509 -1.37434,-3.38423 -1.90402,-6.36227 -0.52974,-2.978126 -0.11188,-5.407768 0.39267,-2.453083 1.89022,-4.071251 1.09976,-1.188352 2.5041,-1.437775 1.37905,-0.272806 2.88368,0.180892 1.50278,0.405083 3.07873,1.441109 1.55068,1.012624 2.99185,2.346438 0.88498,0.819038 1.75028,1.760639 3.26094,3.628106 5.62781,7.461442 2.34156,3.809953 4.25062,7.782898 1.90906,3.972945 3.58036,8.101403 2.56037,6.312537 3.64036,8.391697 0.23697,0.45403 0.62564,1.04844 0.38869,0.59442 0.87853,1.28245 0.48795,0.63935 1.04985,1.30017 0.53663,0.63745 1.11815,1.17562 0.73326,0.6786 1.46086,1.21114 0.75099,0.50726 1.46918,0.7964 0.6929,0.26573 1.30054,0.2178 0.63101,-0.0732 1.09901,-0.57886 0.4446,-0.48042 0.78239,-1.20046 0.33593,-0.76874 0.59222,-1.70504 0.2563,-0.93631 0.43669,-1.94284 0.17856,-1.0552 0.31036,-2.05984 0.27562,-2.32662 0.39011,-5.0371 z m -37.5919,-24.557077 q -1.62953,-1.789711 -2.6662,-2.749112 -1.36536,-1.263607 -2.13039,-1.502153 -0.74157,-0.263841 -1.16275,0.191268 -0.74877,0.809092 -0.32051,2.425858 0.40298,1.593383 1.52791,3.573274 1.12495,1.979877 2.69556,4.137547 1.57062,2.15766 3.13183,4.071916 1.56122,1.914251 2.86205,3.399761 1.30082,1.485509 1.86087,2.097703 1.14532,1.247698 2.23824,2.400018 1.091,1.103547 2.02843,2.018057 0.91215,0.89111 1.62012,1.5463 0.70796,0.6552 1.08722,1.0062 l 0.25286,0.23399 q -1.95322,-4.483231 -4.09174,-8.715489 -0.92263,-1.792652 -1.97172,-3.702361 -1.05099,-1.958376 -2.1959,-3.815417 -1.14456,-1.857242 -2.35557,-3.541257 -1.18759,-1.709308 -2.41068,-3.075955 z"
       id="path1047" />
    <path
       style="opacity:1;fill:#3c5094"
       inkscape:connector-curvature="0"
       d="m 179.8153,98.610367 q -1.52429,2.857243 -3.70911,4.464023 -2.16855,1.57637 -4.66332,2.0807 -2.52506,0.48806 -5.19397,0.001 -2.68303,-0.53334 -5.20587,-1.87924 -1.70219,-0.90806 -3.7021,-2.79501 -2.03037,-1.903191 -3.49737,-3.544829 -1.45078,-1.67202 -2.54083,-3.58117 -1.12073,-1.925158 -1.63696,-3.957992 -0.53072,-2.079315 -0.35208,-4.170618 0.16445,-2.137959 1.2833,-4.235266 0.90806,-1.702183 2.23359,-2.869309 1.32551,-1.167136 2.89608,-1.695841 1.55645,-0.575347 3.27891,-0.437351 1.72258,0.137989 3.45504,1.062302 1.88459,1.005404 3.5602,3.500245 1.69185,2.464448 2.48796,4.997685 0.79611,2.533231 0.88695,5.510255 0.10702,2.946556 -0.57422,5.98021 1.06392,-0.01811 1.83807,-0.151768 0.79037,-0.164056 1.33757,-0.457849 0.54721,-0.29378 0.92824,-0.715253 0.39725,-0.451863 0.7054,-1.029414 0.97299,-1.823729 1.31365,-4.219078 0.35699,-2.425674 0.2843,-4.92439 -0.0727,-2.498716 -0.44119,-4.881964 -0.39896,-2.399493 -0.92159,-4.201038 l 6.16486,-1.748139 q 1.33902,4.150446 1.86138,8.294803 0.21459,1.79349 0.2853,3.783551 0.0869,1.959689 -0.10587,4.004427 -0.20694,1.998173 -0.73812,4.018541 -0.54535,1.973819 -1.51834,3.797548 z m -16.44251,-3.579274 q 0.58378,-1.094263 0.71766,-2.662774 0.11973,-1.615157 -0.17795,-3.179614 -0.2815,-1.594931 -1.20336,-3.453385 -0.92186,-1.858454 -1.89452,-2.377344 -1.36784,-0.729748 -2.525,-0.683234 -1.14094,0.01607 -1.53011,0.745572 -0.6973,1.307041 -0.71365,2.508729 -1.6e-4,1.171305 0.4496,2.231229 0.43556,1.013272 1.22788,1.943547 0.77807,0.883648 1.96143,2.178784 1.19954,1.264663 2.10937,1.828138 0.90985,0.563479 1.57855,0.92021 z"
       id="path1049" />
    <path
       style="opacity:1;fill:#3c5094"
       inkscape:connector-curvature="0"
       d="m 179.85569,81.160311 q -1.38738,-0.610621 -3.14683,-1.573264 -1.79101,-0.976523 -3.72948,-2.13084 -1.92458,-1.185885 -3.88464,-2.462604 -1.97761,-1.322125 -4.12418,-2.944496 -2.17814,-1.636246 -3.60586,-2.753928 -1.42769,-1.117701 -2.28781,-1.985618 -0.58267,-0.557589 -0.88156,-0.990293 -0.29888,-0.432677 -0.3808,-0.845161 -0.0996,-0.457883 0.0455,-0.958616 0.12747,-0.546142 0.44666,-1.271361 0.36084,-0.819826 0.64974,-1.219626 0.27124,-0.445218 0.68371,-0.527152 0.38094,-0.09582 0.96239,0.122477 0.59533,0.186752 1.57279,0.61696 1.16669,0.513555 3.24144,1.61494 2.07475,1.10138 3.7106,1.746141 l 0.15266,-0.346853 q -0.98371,-1.18581 -2.61687,-3.033818 -1.63321,-1.84809 -2.53108,-3.485418 -0.89786,-1.637333 -1.22937,-3.364124 -0.36304,-1.740687 0.40029,-3.474889 0.2637,-0.599103 0.73421,-1.069512 0.439,-0.484297 0.99784,-0.727683 0.57269,-0.274902 1.25127,-0.277332 0.64707,-0.01632 1.34075,0.289033 0.53604,0.235937 1.44411,0.823814 0.87657,0.57402 2.26893,1.600913 1.39237,1.026894 2.33199,1.628715 0.90809,0.587898 1.57027,0.879376 1.13516,0.499666 1.98906,0.611956 0.85391,0.112371 1.47957,-0.02631 0.60799,-0.184075 0.99151,-0.542262 0.39737,-0.389708 0.61943,-0.894208 0.62452,-1.418914 0.66013,-3.210026 0.0355,-1.791133 -0.19754,-3.399355 -0.26214,-1.884505 -0.80423,-3.816963 l 7.17026,3.720645 q 0.17518,1.055751 0.37934,2.387722 0.20415,1.331977 0.27589,2.79386 0.054,1.416452 -0.10504,2.889663 -0.17679,1.427778 -0.7597,2.752168 -1.04091,2.364891 -2.62521,3.398988 -1.61589,1.020204 -3.53573,1.19154 -1.95132,0.157418 -4.05511,-0.279258 -2.13538,-0.450579 -4.23293,-1.072644 l -0.22206,0.504509 13.25018,12.569971 q 1.03545,0.982735 1.67484,1.7535 0.62175,0.725343 0.94585,1.357327 0.3241,0.631965 0.33664,1.202136 -0.019,0.556248 -0.26881,1.123815 -0.56904,1.292801 -1.45206,1.845164 -0.91447,0.538481 -2.02325,0.577426 -1.12637,-0.0064 -2.36246,-0.362308 -1.25372,-0.401269 -2.51497,-0.956456 z"
       id="path1051" />
    <path
       style="opacity:1;fill:#406aa7"
       inkscape:connector-curvature="0"
       d="m 14.336567,128.33278 q -1.802884,4.27672 -3.338158,6.48154 -1.5352741,2.20483 -2.6317231,2.31993 -1.50758,0.15819 -1.87069,-3.30239 -0.352305,-3.35781 0.326612,-6.13089 0.678918,-2.77308 2.210602,-5.01233 1.4938301,-2.26981 3.7069831,-3.95692 2.243827,-1.72497 4.956282,-2.94487 2.743133,-1.25775 5.848616,-2.03389 3.105463,-0.77618 6.428972,-1.1249 3.871673,-0.40626 7.838802,-0.23359 3.963504,0.13838 7.668898,0.78872 3.705444,0.65041 6.977927,1.79652 3.268908,1.11191 5.751477,2.65265 2.513186,1.50297 4.030902,3.42213 1.551961,1.91555 1.785673,4.14267 0.276812,2.63826 -0.618488,5.33015 -0.86097,2.68836 -3.108635,5.03729 -2.216909,2.311 -5.91418,4.04994 -3.662981,1.73533 -8.997194,2.399 3.392002,-0.35588 6.042539,0.47438 2.646876,0.79613 4.554222,2.46655 1.903669,1.63617 3.029877,4.116 1.1226,2.44554 1.399473,5.08376 0.226487,2.15854 -0.122283,4.4468 -0.348796,2.28826 -1.298021,4.46616 -0.949174,2.17798 -2.506102,4.1773 -1.560452,1.96502 -3.78436,3.5493 -2.189691,1.58074 -5.057184,2.6437 -2.863883,1.09721 -6.393039,1.46753 -2.227122,0.23371 -4.72634,0.18414 -2.495659,-0.0152 -5.085033,-0.26314 -2.551556,-0.21722 -5.05612,-0.64725 -2.504564,-0.43003 -4.745789,-0.99155 -0.984528,-0.13917 -1.788633,-0.5398 -0.769853,-0.40419 -0.899292,-1.63766 -0.596759,-5.68762 -0.948457,-11.67838 -0.31722,-5.99404 -0.03751,-11.91217 0.276081,-5.95241 1.330591,-10.42775 1.054559,-4.47525 3.402098,-8.84379 2.25654,-1.93416 4.243729,-2.14265 2.501171,-0.26244 4.474872,2.37091 -1.353171,2.28964 -2.210602,5.01232 -0.823151,2.71906 -1.193477,4.80164 -0.370327,2.08257 -0.537252,5.11385 -0.132646,3.02765 -0.108345,5.90014 -0.0023,1.62833 0.06914,3.62995 0.102117,1.96374 0.197084,3.85896 0.09494,1.89525 0.224163,3.78687 0.159891,1.85382 0.339679,3.56694 0.02876,0.2741 0.0791,0.75378 0.05033,0.47967 0.172786,0.98643 0.156712,0.50315 0.340507,0.93419 0.180196,0.39677 0.47587,0.5736 2.161926,0.46596 4.610679,0.69393 2.448753,0.22796 4.84717,-0.0237 2.912368,-0.30563 5.581471,-1.27841 2.665543,-1.00714 4.631625,-2.73759 1.962557,-1.76475 2.982197,-4.26188 1.050324,-2.53499 0.662,-6.23538 -0.208545,-1.98728 -1.098915,-3.21012 -0.893978,-1.25714 -2.220934,-2.01857 -1.292652,-0.76496 -2.922644,-1.11357 -1.599365,-0.38638 -3.287081,-0.62499 -1.657149,-0.27647 -3.276342,-0.52219 -1.584913,-0.24935 -2.883135,-0.73674 -1.267526,-0.5252 -2.118363,-1.37111 -0.854469,-0.8803 -1.012622,-2.38779 -0.07549,-0.71952 -0.0609,-1.24067 0.04527,-0.55899 0.317681,-0.93398 0.306677,-0.37858 0.905405,-0.61459 0.633017,-0.23962 1.729459,-0.35469 1.473291,-0.15459 2.686898,-0.14336 1.244278,-0.0266 2.648994,-0.174 3.289199,-0.34514 5.844758,-1.40999 2.586219,-1.10273 4.292608,-2.66738 1.740674,-1.56827 2.543775,-3.48845 0.833796,-1.95803 0.614484,-4.04808 -0.143802,-1.37052 -1.050475,-2.41848 -0.91029,-1.08225 -2.442828,-1.8221 -1.501833,-0.77767 -3.492491,-1.26158 -1.99065,-0.4839 -4.298745,-0.69204 -2.31172,-0.24242 -4.834458,-0.18553 -2.526363,0.0226 -5.096006,0.29226 -4.145838,0.435 -6.412634,0.94999 -3.116209,0.67337 -5.778121,1.7148 -2.631254,1.00354 -4.633356,2.3914 -1.967811,1.38425 -2.909634,2.97256 z"
       id="path1024" />
    <path
       style="opacity:1;fill:#406aa7"
       inkscape:connector-curvature="0"
       d="m 77.333681,165.85298 q -1.819971,0.38572 -3.739646,-0.86265 -1.893143,-1.28914 -3.644113,-3.73539 -1.717285,-2.45334 -3.141267,-5.84921 -1.397438,-3.43672 -2.225939,-7.34624 -0.635684,-2.99952 -0.940383,-6.59739 -0.311798,-3.63165 -0.262072,-7.55113 0.04972,-3.91947 0.395658,-7.9371 0.379652,-4.02462 1.093201,-7.80312 0.747218,-3.78558 1.830318,-7.14939 1.076017,-3.39749 2.491936,-6.02184 1.408835,-2.65803 3.193177,-4.37446 1.784469,-1.716408 3.907655,-2.166341 1.449195,-0.307123 2.535675,0.166925 1.07937,0.440362 1.84719,1.404586 0.76779,0.96418 1.26286,2.30313 0.52162,1.2981 0.82158,2.71356 0.67137,3.16805 0.62991,6.62803 -0.0149,3.41914 -0.55479,7.01988 -0.51327,3.55999 -1.4239,7.23934 -0.91062,3.67935 -1.96322,7.3536 -1.05967,3.64059 -2.16737,7.22079 -1.081119,3.53946 -1.98863,6.9012 -0.09708,0.37274 -0.185013,0.95483 -0.05424,0.57496 -0.08704,1.25103 -0.03995,0.64235 -0.05847,1.3858 -0.01853,0.74344 0.02324,1.43896 l 0.1,0.47184 q 0.185711,0.87626 0.53278,1.6831 0.373658,0.766 0.786084,1.38294 0.405311,0.58322 0.794349,0.92333 0.38188,0.30644 0.65151,0.2493 0.64034,-0.1357 1.39203,-0.57672 0.78543,-0.44816 1.60252,-1.07915 0.84372,-0.67185 1.69966,-1.45192 0.84882,-0.81379 1.63017,-1.61325 1.82324,-1.86546 3.75592,-4.21195 l 4.2635,6.49178 q -2.54239,2.79264 -5.11742,5.09917 -1.1307,0.97916 -2.36253,1.97977 -1.2052,0.95972 -2.47277,1.79184 -1.26757,0.8321 -2.51049,1.4477 -1.25014,0.5819 -2.39603,0.82475 z m -5.680235,-26.96905 q 0.945237,-3.0176 1.916103,-6.74501 1.004535,-3.7345 1.764071,-7.62834 0.759537,-3.89385 1.121722,-7.66832 0.355102,-3.80815 0.0085,-6.93933 -0.207133,-0.97737 -0.41739,-1.63714 -0.183693,-0.70061 -0.453361,-0.64345 -0.977365,0.20714 -1.851863,1.73068 -0.847944,1.48272 -1.536635,3.88247 -0.655023,2.39267 -1.09271,5.47877 -0.403932,3.07897 -0.527124,6.4858 -0.123193,3.40682 0.133549,6.94451 0.249608,3.50394 0.935198,6.73941 z"
       id="path1026" />
    <path
       style="opacity:1;fill:#406aa7"
       inkscape:connector-curvature="0"
       d="m 100.60279,159.41027 q -3.080179,0.99977 -5.768389,0.64085 -2.65537,-0.36964 -4.80177,-1.7375 -2.157,-1.40065 -3.74109,-3.60296 -1.56201,-2.24577 -2.44477,-4.96546 -0.59563,-1.83503 -0.72647,-4.58147 -0.1415,-2.7793 -0.0587,-4.97933 0.1155,-2.21074 0.65527,-4.34183 0.52915,-2.16389 1.56766,-3.98595 1.06062,-1.86554 2.64035,-3.24757 1.60189,-1.42545 3.86286,-2.15933 1.83503,-0.59564 3.59935,-0.51635 1.76431,0.0793 3.26212,0.78836 1.519999,0.66568 2.664639,1.96031 1.14463,1.29463 1.75085,3.16235 0.65941,2.03157 0.13487,4.9908 -0.49177,2.94863 -1.6762,5.32514 -1.18452,2.37655 -3.184719,4.5833 -1.96745,2.19608 -4.563,3.90785 0.7787,0.72521 1.42888,1.16609 0.68297,0.43028 1.28086,0.59845 0.5979,0.16816 1.16471,0.12903 0.5996,-0.0497 1.22223,-0.25184 1.966119,-0.63818 3.873469,-2.12655 1.94021,-1.49906 3.62162,-3.34877 1.68152,-1.84973 3.06978,-3.82158 1.37768,-2.0046 2.25145,-3.66458 l 5.65231,3.01889 q -1.91572,3.91786 -4.41523,7.26459 -1.08993,1.44038 -2.41987,2.92247 -1.29717,1.47143 -2.85482,2.8101 -1.5355,1.29524 -3.31992,2.38153 -1.76226,1.04287 -3.72838,1.68105 z m -9.357049,-13.98629 q 1.17969,-0.38291 2.36446,-1.41944 1.20693,-1.07993 2.07818,-2.41308 0.90401,-1.34382 1.52971,-3.32167 0.6257,-1.97785 0.2854,-3.02647 -0.47862,-1.47455 -1.34407,-2.244 -0.83276,-0.78014 -1.61915,-0.52485 -1.409,0.45734 -2.2547,1.31134 -0.81283,0.84335 -1.2245,1.91871 -0.38946,1.03192 -0.46444,2.25157 -0.0529,1.17621 -0.0994,2.92991 -0.0138,1.74301 0.25042,2.78016 0.26417,1.03705 0.49816,1.75794 z"
       id="path1028" />
    <path
       style="opacity:1;fill:#406aa7"
       inkscape:connector-curvature="0"
       d="m 112.23311,147.81458 q -1.11134,-1.9837 -2.31899,-4.7031 -1.2245,-2.74952 -2.59821,-6.04728 -1.39056,-3.32787 -2.33735,-6.07502 -0.94676,-2.74717 -1.51946,-4.75618 -0.44396,-1.56776 -0.0342,-3.02149 0.43977,-1.47049 2.06275,-2.37981 1.623,-0.90929 2.80983,-0.27102 1.18682,0.63819 2.11297,2.29129 0.2523,0.45099 0.6002,1.28275 0.3308,0.80191 0.7025,1.81779 0.38495,0.96905 0.79032,2.04502 0.38855,1.04596 0.9455,2.39248 0.57016,1.29964 0.83362,1.98135 0.24661,0.65162 0.36447,0.86201 l 0.60111,-0.33678 q -0.005,-0.43164 -0.0183,-1.37185 -0.0302,-0.97029 -0.29393,-2.63911 -0.26369,-1.66882 -0.28193,-3.04071 -0.005,-1.41875 -0.033,-2.66678 -0.0447,-1.27807 -0.0449,-2.26522 -1.9e-4,-0.98712 0.008,-1.46563 0.0525,-2.16188 0.94793,-3.45333 0.89553,-1.2915 2.3983,-2.13343 1.50277,-0.84192 3.0816,-0.0679 1.60895,0.75717 2.85493,2.98125 0.18513,0.33066 0.47278,1.19628 0.31757,0.8488 0.71338,2.04868 0.39581,1.19988 1.08513,3.06462 0.71936,1.84789 1.26668,3.31821 0.54733,1.47032 1.13795,2.87697 0.62066,1.38976 1.2437,2.50183 1.044,1.86346 2.16838,2.81309 1.1544,0.93277 2.14628,0.37708 0.36065,-0.2021 0.8703,-0.84299 0.78975,-0.91632 0.90875,-1.3384 0.74991,-1.76272 0.82688,-1.7664 0.10701,-0.0205 1.34016,-2.33039 1.54573,-2.8799 3.63575,-6.97309 l 3.74177,6.74924 -0.86288,1.98405 q -0.0961,0.25131 -1.94962,3.14576 -2.67206,4.18225 -3.398,5.14189 -1.75493,2.36536 -2.24189,2.83553 -1.23333,1.32281 -2.88643,2.24896 -1.65302,0.92608 -4.1254,-0.80841 -2.45916,-1.78138 -5.03548,-6.3799 -1.01033,-1.80334 -1.93171,-4.01183 -0.93825,-2.23859 -1.92467,-4.84508 l -0.48088,0.26943 0.88138,20.04019 q 0.0761,1.61596 -0.40953,2.44088 -0.49881,0.87179 -1.49067,1.42748 -1.23227,0.69044 -2.26991,0.6004 -1.05448,-0.12004 -1.9636,-0.75586 -0.89587,-0.68274 -1.66917,-1.71059 -0.76008,-1.07475 -1.43361,-2.27695 z"
       id="path1030" />
    <path
       style="opacity:1;fill:#406aa7"
       inkscape:connector-curvature="0"
       d="m 135.81858,105.92581 q -0.73533,2.41756 -0.61199,4.9726 0.1214,2.50627 1.47692,5.4037 1.37887,2.87205 2.5253,4.77797 1.14646,1.90592 2.4107,3.07595 0.50569,0.468 1.10499,0.83486 0.62268,0.34158 1.30804,0.41255 0.68536,0.071 1.45302,-0.25129 0.76767,-0.32227 1.58666,-1.20723 0.4212,-0.45512 0.59146,-1.09556 0.19364,-0.66572 0.21403,-1.3979 -0.005,-0.75555 -0.13241,-1.53078 -0.12941,-0.82387 -0.35429,-1.59528 -0.50792,-1.78441 -1.4362,-3.72311 -0.42418,-0.25174 -1.2295,-0.90314 -0.83063,-0.67483 -2.42172,-2.10034 -1.61635,-1.44894 -2.65112,-2.35967 -1.03478,-0.91073 -1.89255,-1.6576 -0.83438,-0.77216 -1.38878,-1.23831 -0.55437,-0.46613 -0.55249,-0.41744 z m 31.5225,-3.12144 q -0.27077,3.08222 -0.79811,5.83303 -0.22348,1.15446 -0.51711,2.38475 -0.31896,1.20691 -0.69035,2.31827 -0.39671,1.08802 -0.87113,2.05717 -0.47632,0.92046 -1.06131,1.55256 -0.3276,0.35398 -1.13451,0.92156 -0.7835,0.54228 -2.01086,0.95549 -1.22923,0.36452 -2.88636,0.37988 -1.63374,-0.01 -3.66182,-0.76025 0.0445,1.77797 -0.10397,3.61212 -0.1503,1.78546 -0.59645,3.48491 -0.4228,1.67409 -1.11994,3.18821 -0.69904,1.46542 -1.77543,2.62846 -1.52102,1.64351 -3.35213,2.20194 -1.8078,0.5332 -3.71971,0.26588 -1.91377,-0.31595 -3.77993,-1.29204 -1.84277,-1.00137 -3.43574,-2.47548 -1.61823,-1.49763 -2.88732,-3.42315 -1.27097,-1.97421 -2.08796,-4.18547 -0.81886,-2.25994 -1.62369,-4.78849 -0.78148,-2.55392 -0.69792,-5.43383 0.10693,-2.90519 0.96679,-5.25447 0.85986,-2.34927 2.46122,-4.43464 -3.16621,-3.071032 -5.22671,-5.916731 -2.06048,-2.845714 -4.14542,-6.324287 -2.08491,-3.478583 -3.48268,-6.837509 -1.37434,-3.38423 -1.90403,-6.36227 -0.52968,-2.978039 -0.11187,-5.407767 0.39267,-2.453084 1.89021,-4.071252 1.09977,-1.188352 2.5041,-1.437775 1.37906,-0.272806 2.88369,0.180892 1.50277,0.405083 3.07873,1.441109 1.55068,1.012624 2.99185,2.346438 0.88498,0.819038 1.75028,1.760639 3.26093,3.628106 5.6278,7.461442 2.34157,3.809953 4.25063,7.782898 1.90906,3.972945 3.58036,8.101403 2.56037,6.31253 3.64036,8.39169 0.23696,0.45404 0.62564,1.04845 0.38869,0.59442 0.87853,1.28245 0.48794,0.63934 1.04984,1.30017 0.53663,0.63744 1.11816,1.17562 0.73326,0.6786 1.46085,1.21113 0.751,0.50727 1.46919,0.79641 0.69289,0.26572 1.30054,0.2178 0.63101,-0.0732 1.09901,-0.57887 0.44459,-0.48041 0.78239,-1.20045 0.33592,-0.76875 0.59222,-1.70505 0.25629,-0.9363 0.43669,-1.94283 0.17856,-1.0552 0.31035,-2.05985 0.27562,-2.32661 0.39012,-5.037097 z m -37.5919,-24.557075 q -1.62953,-1.78971 -2.6662,-2.749112 -1.36536,-1.263612 -2.13039,-1.502153 -0.74158,-0.263841 -1.16275,0.191268 -0.74877,0.809092 -0.32051,2.425859 0.40298,1.593382 1.52791,3.573274 1.12495,1.979876 2.69556,4.137546 1.57062,2.15766 3.13183,4.071916 1.56122,1.914251 2.86204,3.399761 1.30083,1.48551 1.86087,2.097703 1.14533,1.247699 2.23825,2.400018 1.091,1.103548 2.02843,2.018056 0.91215,0.891111 1.62011,1.546307 0.70797,0.655192 1.08723,1.006192 l 0.25285,0.23399 q -1.95321,-4.483229 -4.09173,-8.715486 -0.92263,-1.792652 -1.97172,-3.702362 -1.05099,-1.958376 -2.1959,-3.815417 -1.14457,-1.857242 -2.35557,-3.541257 -1.18759,-1.709308 -2.41069,-3.075955 z"
       id="path1032" />
    <path
       style="opacity:1;fill:#406aa7"
       inkscape:connector-curvature="0"
       d="m 175.73297,95.699559 q -1.52429,2.857245 -3.70911,4.464021 -2.16855,1.57637 -4.66332,2.0807 -2.52507,0.48806 -5.19398,10e-4 -2.68302,-0.53334 -5.20587,-1.87923 -1.70218,-0.90807 -3.70209,-2.795017 -2.03038,-1.903192 -3.49737,-3.54483 -1.45078,-1.67202 -2.54084,-3.58117 -1.12072,-1.925158 -1.63695,-3.957992 -0.53072,-2.079315 -0.35208,-4.170618 0.16445,-2.137959 1.28329,-4.235266 0.90807,-1.702182 2.23359,-2.869309 1.32552,-1.167136 2.89609,-1.69584 1.55645,-0.575348 3.27891,-0.437352 1.72258,0.137989 3.45504,1.062302 1.88459,1.005404 3.5602,3.500245 1.69185,2.464449 2.48795,4.997685 0.79612,2.533231 0.88696,5.510255 0.10702,2.946556 -0.57423,5.98021 1.06393,-0.01811 1.83807,-0.151768 0.79038,-0.164056 1.33758,-0.457849 0.5472,-0.29378 0.92823,-0.715252 0.39725,-0.451863 0.7054,-1.029415 0.97299,-1.823729 1.31366,-4.219078 0.35699,-2.425674 0.28429,-4.92439 -0.0727,-2.498715 -0.44119,-4.881964 -0.39895,-2.399493 -0.9215,-4.201088 l 6.16487,-1.748139 q 1.33902,4.150441 1.86138,8.294803 0.21458,1.79349 0.28529,3.783551 0.0869,1.959689 -0.10587,4.004427 -0.20693,1.998173 -0.73811,4.018541 -0.54536,1.973819 -1.51835,3.797548 z m -16.44251,-3.579274 q 0.58378,-1.094263 0.71766,-2.662774 0.11973,-1.615157 -0.17795,-3.179614 -0.2815,-1.594931 -1.20336,-3.453385 -0.92187,-1.858454 -1.89452,-2.377344 -1.36784,-0.729748 -2.52501,-0.683234 -1.14094,0.01607 -1.53011,0.745572 -0.6973,1.307041 -0.71364,2.508729 -1.6e-4,1.171305 0.4496,2.231229 0.43556,1.013272 1.22788,1.943547 0.77807,0.883648 1.96143,2.178784 1.19954,1.264663 2.10937,1.828139 0.90985,0.563479 1.57855,0.920209 z"
       id="path1034" />
    <path
       style="opacity:1;fill:#406aa7"
       inkscape:connector-curvature="0"
       d="m 175.78251,78.24537 q -1.38736,-0.610627 -3.14682,-1.573264 -1.79101,-0.976524 -3.72948,-2.130841 -1.92459,-1.185885 -3.88464,-2.462604 -1.97762,-1.322125 -4.12419,-2.944496 -2.17814,-1.636246 -3.60585,-2.753927 -1.42769,-1.117702 -2.28781,-1.985619 -0.58267,-0.557589 -0.88157,-0.990288 -0.29888,-0.432677 -0.3808,-0.845161 -0.0996,-0.457878 0.0455,-0.958616 0.12747,-0.546142 0.44666,-1.27136 0.36084,-0.819827 0.64974,-1.219627 0.27125,-0.445223 0.68371,-0.527152 0.38094,-0.09582 0.96238,0.122477 0.59534,0.186752 1.5728,0.61696 1.16669,0.513556 3.24144,1.61494 2.07475,1.10138 3.7106,1.746141 l 0.15266,-0.346853 q -0.98372,-1.185809 -2.61687,-3.033818 -1.63322,-1.84809 -2.53108,-3.485418 -0.89786,-1.637332 -1.22937,-3.364124 -0.36304,-1.740687 0.40029,-3.474888 0.26369,-0.599104 0.73421,-1.069513 0.439,-0.484297 0.99784,-0.727683 0.57268,-0.274902 1.25127,-0.277332 0.64707,-0.01632 1.34074,0.289033 0.53605,0.235937 1.44412,0.823814 0.87656,0.57402 2.26893,1.600914 1.39237,1.026893 2.33199,1.628714 0.90809,0.587898 1.57027,0.879377 1.13516,0.499665 1.98906,0.611955 0.85391,0.112371 1.47957,-0.02631 0.60799,-0.184076 0.99151,-0.542263 0.39737,-0.389708 0.61943,-0.894208 0.62451,-1.418914 0.66013,-3.210026 0.0355,-1.791133 -0.19754,-3.399355 -0.26215,-1.884505 -0.80423,-3.816963 l 7.17025,3.720645 q 0.17519,1.055751 0.37935,2.387723 0.20415,1.331976 0.27589,2.79386 0.054,1.416451 -0.10504,2.889662 -0.17679,1.427779 -0.7597,2.752168 -1.04091,2.364891 -2.62522,3.398988 -1.61588,1.020204 -3.53572,1.19154 -1.95132,0.157419 -4.05511,-0.279258 -2.13538,-0.450579 -4.23293,-1.072644 l -0.22206,0.504509 13.25018,12.569971 q 1.03545,0.982735 1.67484,1.753501 0.62175,0.725342 0.94584,1.357326 0.32411,0.631965 0.33664,1.202136 -0.019,0.556248 -0.2688,1.123815 -0.56904,1.292801 -1.45206,1.845164 -0.91447,0.538481 -2.02325,0.577426 -1.12637,-0.0064 -2.36246,-0.362308 -1.25373,-0.401269 -2.51497,-0.956456 z"
       id="path1036" />
    <path
       style="opacity:1;fill:#c63d48"
       inkscape:connector-curvature="0"
       d="m 62.094803,180.18448 5.447739,-1.24404 3.336479,14.61015 3.597376,-16.19316 5.447744,-1.24404 -3.58116,14.20925 11.597,20.43532 -5.69532,1.30061 -8.134475,-14.4 -1.172513,4.90535 2.521794,11.04367 -5.447739,1.24404 z"
       id="path1108" />
    <path
       style="opacity:1;fill:#c63d48"
       inkscape:connector-curvature="0"
       d="m 82.127071,175.49739 14.6363,-4.2452 1.41513,4.87888 -9.26994,2.6888 2.61802,9.02594 7.36718,-2.13688 1.415129,4.87889 -7.367179,2.13687 3.04276,10.49002 9.269939,-2.6888 1.41513,4.87888 -14.636289,4.24519 z"
       id="path1110" />
    <path
       style="opacity:1;fill:#c63d48"
       inkscape:connector-curvature="0"
       d="m 110.83459,187.95227 -13.392969,-16.83151 5.577919,-2.05255 8.08453,10.93701 0.0954,-0.0351 -0.93313,-13.56824 5.10115,-1.87714 0.71156,21.49846 5.22812,14.20737 -5.2442,1.92978 z"
       id="path1112" />
    <path
       style="opacity:1;fill:#c63d48"
       inkscape:connector-curvature="0"
       d="m 115.70074,164.60068 7.13838,-3.55716 14.53397,21.19338 0.0908,-0.0455 -8.16841,-24.3651 7.13839,-3.55715 15.85986,31.82709 -4.72864,2.35635 -12.00808,-24.0974 -0.0908,0.0455 8.37063,25.90996 -4.183,2.08444 -15.64543,-22.28489 -0.0908,0.0455 12.00808,24.0974 -4.36485,2.17506 z"
       id="path1114" />
    <path
       style="opacity:1;fill:#c63d48"
       inkscape:connector-curvature="0"
       d="m 140.52203,151.33242 6.23126,-4.29695 24.95482,25.98722 -4.60029,3.17226 -4.84498,-5.23635 0.0576,0.0837 -5.22756,3.60481 3.1145,6.30622 -4.26572,2.94156 z m 18.51476,16.1111 -12.02726,-13.05663 -0.0837,0.0576 7.97101,15.85461 z"
       id="path1116" />
    <path
       style="opacity:1;fill:#c63d48"
       inkscape:connector-curvature="0"
       d="m 150.77673,144.23407 6.0267,-5.60405 q 3.05059,-2.83661 6.09795,-2.61803 3.04737,0.21861 5.98778,3.38075 l 2.38691,2.56695 q 2.94037,3.16216 2.93718,6.21738 -0.003,3.05522 -3.05371,5.89181 l -1.93447,1.7988 9.85915,10.60295 -4.09224,3.80523 z m 16.92352,6.11441 q 1.00447,-0.934 0.96918,-1.94173 0.002,-1.04234 -1.24338,-2.38158 l -2.8712,-3.08778 q -1.24533,-1.33926 -2.28503,-1.41299 -1.00251,-0.10833 -2.00695,0.82566 l -1.93447,1.7988 7.43766,7.9988 z"
       id="path1118" />
    <path
       style="opacity:1;fill:#c63d48"
       inkscape:connector-curvature="0"
       d="m 173.89567,126.93727 -3.34158,4.792 -4.16693,-2.90573 9.87979,-14.16771 4.16692,2.90573 -3.34158,4.792 25.00153,17.43393 -3.1963,4.58365 z"
       id="path1120" />
    <path
       style="opacity:1;fill:#c63d48"
       inkscape:connector-curvature="0"
       d="m 176.28181,114.33017 3.94902,-7.27809 q 2.05933,-3.79534 4.79015,-4.56762 2.68622,-0.79653 6.34763,1.19002 l 1.92001,1.04176 q 4.86691,2.64074 4.4175,6.55818 l 0.0893,0.0484 q 1.50486,-1.4953 3.54462,-1.31334 2.06397,0.13731 4.8323,1.63939 l 5.49205,2.9799 q 1.33952,0.72681 2.23632,1.09782 0.85216,0.34678 1.84974,0.42566 l -2.71338,5.00088 q -0.90443,-0.14395 -1.62264,-0.41809 -0.71822,-0.27411 -2.45958,-1.21892 l -5.7153,-3.101 q -2.14328,-1.16286 -3.37921,-0.90875 -1.21181,0.20947 -2.13239,1.90619 l -0.92058,1.6967 13.39528,7.26811 -2.66494,4.91159 z m 17.02967,0.57026 q 0.79947,-1.47347 0.42808,-2.59974 -0.34718,-1.17087 -2.13323,-2.13999 l -2.41113,-1.3082 q -1.69671,-0.92058 -2.79495,-0.70739 -1.07399,0.16859 -1.77658,1.46347 l -1.21131,2.23255 8.9302,4.84536 z"
       id="path1122" />
    <path
       style="opacity:1;fill:#c63d48"
       inkscape:connector-curvature="0"
       d="m 187.6401,92.283305 3.31818,-6.803139 34.4997,10.383239 -2.44963,5.022505 -6.79199,-2.182273 0.0913,0.04452 -2.78366,5.707373 5.80981,3.96408 -2.27144,4.65716 z m 24.04033,4.94308 -16.88877,-5.468215 -0.0445,0.0913 14.72882,9.89646 z"
       id="path1124" />
    <path
       style="opacity:1;fill:#c63d48"
       inkscape:connector-curvature="0"
       d="m 196.0508,75.251067 2.64326,-4.923333 31.3306,16.82018 -2.64327,4.923333 z"
       id="path1126" />
    <path
       style="opacity:1;fill:#c63d48"
       inkscape:connector-curvature="0"
       d="m 203.93013,60.838478 4.1638,-5.639899 20.35255,8.269648 0.0603,-0.08172 -17.12417,-12.642722 2.95689,-4.005127 28.60805,21.120598 -3.4095,4.618168 -24.86634,-10.02376 -0.0603,0.08172 20.88424,15.418575 -2.95688,4.005127 z"
       id="path1128" />
    <path
       style="opacity:1;fill:#c63d48"
       inkscape:connector-curvature="0"
       d="m 225.83174,35.173176 12.21826,-9.109352 3.03638,4.072641 -7.73812,5.769184 5.61731,7.534471 6.14974,-4.584953 3.03637,4.072642 -6.14973,4.584953 6.52812,8.756027 7.73812,-5.769184 3.03638,4.072642 -12.21826,9.109352 z"
       id="path1130" />
    <path
       style="opacity:1;fill:#c63d48"
       inkscape:connector-curvature="0"
       d="m 251.59724,18.960318 7.78623,-2.817838 q 4.06026,-1.469425 6.61472,-0.232972 2.5372,1.188763 3.95472,5.105672 l 0.74335,2.054008 q 1.88433,5.206704 -1.05359,7.836719 l 0.0346,0.09552 q 2.11815,-0.118267 3.52214,1.372515 1.45171,1.473563 2.52355,4.435118 l 2.12641,5.875455 q 0.51864,1.433074 0.94261,2.306047 0.40671,0.825246 1.10005,1.546806 l -5.35006,1.936225 q -0.58049,-0.70833 -0.93534,-1.390289 -0.35482,-0.681967 -1.02908,-2.544915 l -2.21279,-6.114262 q -0.82981,-2.292886 -1.92255,-2.923848 -1.04497,-0.648265 -2.86017,0.0086 l -1.81522,0.656944 5.18642,14.330746 -5.25445,1.901616 z m 12.35167,11.737721 q 1.57634,-0.570484 2.04674,-1.659143 0.51815,-1.105933 -0.17337,-3.016675 l -0.93355,-2.579515 q -0.65694,-1.815221 -1.61954,-2.385185 -0.91488,-0.587316 -2.30013,-0.08595 l -2.3884,0.864373 3.45731,9.553237 z"
       id="path1132" />
    <path
       style="opacity:1;fill:#c55852"
       inkscape:connector-curvature="0"
       d="m 60.299278,179.07453 5.447739,-1.24404 3.336478,14.61015 3.597377,-16.19316 5.447739,-1.24404 -3.581155,14.20926 11.596995,20.43531 -5.69532,1.30062 -8.13447,-14.4 -1.172513,4.90535 2.521794,11.04367 -5.447739,1.24404 z"
       id="path1081" />
    <path
       style="opacity:1;fill:#c55852"
       inkscape:connector-curvature="0"
       d="m 80.331051,174.38658 14.63629,-4.24519 1.41513,4.87888 -9.26993,2.6888 2.61802,9.02593 7.36717,-2.13687 1.41513,4.87888 -7.36717,2.13687 3.04276,10.49002 9.269929,-2.6888 1.41514,4.87888 -14.637159,4.2457 z"
       id="path1083" />
    <path
       style="opacity:1;fill:#c55852"
       inkscape:connector-curvature="0"
       d="m 109.03857,186.84146 -13.392979,-16.83151 5.577929,-2.05255 8.08453,10.93702 0.0954,-0.0351 -0.93314,-13.56823 5.10116,-1.87714 0.71156,21.49847 5.22812,14.20736 -5.2442,1.92978 z"
       id="path1085" />
    <path
       style="opacity:1;fill:#c55852"
       inkscape:connector-curvature="0"
       d="m 113.89605,163.49487 7.13839,-3.55715 14.53397,21.19338 0.0908,-0.0455 -8.16841,-24.3651 7.13838,-3.55716 15.85987,31.82709 -4.72865,2.35635 -12.00807,-24.0974 -0.0908,0.0455 8.37063,25.90996 -4.18299,2.08444 -15.64544,-22.28489 -0.0908,0.0455 12.00808,24.0974 -4.36486,2.17506 z"
       id="path1087" />
    <path
       style="opacity:1;fill:#c55852"
       inkscape:connector-curvature="0"
       d="m 138.726,150.22161 6.23126,-4.29694 24.95483,25.98722 -4.60029,3.17226 -4.84498,-5.23634 0.0576,0.0837 -5.22756,3.60481 3.1145,6.30622 -4.26572,2.94156 z m 18.51476,16.1111 -12.02726,-13.05663 -0.0837,0.0576 7.97102,15.85461 z"
       id="path1089" />
    <path
       style="opacity:1;fill:#c55852"
       inkscape:connector-curvature="0"
       d="m 148.9807,143.12327 6.0267,-5.60405 q 3.0506,-2.83662 6.09796,-2.61803 3.04737,0.2186 5.98778,3.38074 l 2.3869,2.56696 q 2.94038,3.16216 2.93719,6.21737 -0.003,3.05522 -3.05372,5.89181 l -1.93447,1.7988 9.85915,10.60295 -4.09224,3.80523 z m 16.92353,6.11441 q 1.00447,-0.93401 0.96918,-1.94174 0.002,-1.04232 -1.24338,-2.38158 l -2.87121,-3.08778 q -1.24534,-1.33926 -2.28503,-1.41298 -1.00252,-0.10833 -2.00695,0.82566 l -1.93447,1.7988 7.43766,7.9988 z"
       id="path1091" />
    <path
       style="opacity:1;fill:#c55852"
       inkscape:connector-curvature="0"
       d="m 172.09965,125.82646 -3.34159,4.792 -4.16693,-2.90573 9.87979,-14.16771 4.16693,2.90573 -3.34159,4.792 25.00154,17.43394 -3.1963,4.58364 z"
       id="path1093" />
    <path
       style="opacity:1;fill:#c55852"
       inkscape:connector-curvature="0"
       d="m 174.48678,113.22109 3.94902,-7.27809 q 2.05933,-3.79534 4.79015,-4.56762 2.68623,-0.79652 6.34763,1.19002 l 1.92002,1.04176 q 4.86691,2.64074 4.41749,6.55819 l 0.0893,0.0485 q 1.50486,-1.4953 3.54461,-1.31335 2.06398,0.13731 4.8323,1.63939 l 5.49205,2.97991 q 1.33953,0.72681 2.23632,1.09782 0.85217,0.34677 1.84975,0.42565 l -2.71339,5.00088 q -0.90442,-0.14395 -1.62264,-0.41809 -0.71821,-0.27411 -2.45957,-1.21891 l -5.71531,-3.10101 q -2.14327,-1.16285 -3.3792,-0.90874 -1.21181,0.20948 -2.13239,1.90618 l -0.92059,1.69671 13.39528,7.2681 -2.66493,4.9116 z m 17.02963,0.57018 q 0.79947,-1.47346 0.42808,-2.59974 -0.34718,-1.17088 -2.13323,-2.13999 l -2.41118,-1.30828 q -1.69671,-0.92059 -2.79496,-0.7074 -1.07399,0.16859 -1.77658,1.46347 l -1.2113,2.23256 8.93019,4.84535 z"
       id="path1095" />
    <path
       style="opacity:1;fill:#c55852"
       inkscape:connector-curvature="0"
       d="m 185.84507,91.17423 3.31818,-6.803139 34.49971,10.383238 -2.44964,5.022506 -6.79199,-2.182273 0.0913,0.04452 -2.78365,5.707368 5.8098,3.96408 -2.27143,4.65716 z m 24.04034,4.94308 -16.88878,-5.468215 -0.0445,0.0913 14.72882,9.896465 z"
       id="path1097" />
    <path
       style="opacity:1;fill:#c55852"
       inkscape:connector-curvature="0"
       d="m 194.25577,74.141992 2.64327,-4.923333 31.33059,16.82018 -2.64326,4.923333 z"
       id="path1099" />
    <path
       style="opacity:1;fill:#c55852"
       inkscape:connector-curvature="0"
       d="m 202.13511,59.729403 4.16379,-5.6399 20.35255,8.269649 0.0603,-0.08172 -17.12416,-12.642721 2.95688,-4.005127 28.60805,21.120598 -3.4095,4.618168 -24.86634,-10.02376 -0.0603,0.08172 20.88425,15.418575 -2.95689,4.005127 z"
       id="path1101" />
    <path
       style="opacity:1;fill:#c55852"
       inkscape:connector-curvature="0"
       d="m 224.03622,34.063234 12.21826,-9.109352 3.03638,4.072642 -7.73812,5.769184 5.61731,7.534471 6.14973,-4.584953 3.03638,4.072641 -6.14973,4.584953 6.52811,8.756028 7.73812,-5.769184 3.03638,4.072641 -12.21826,9.109352 z"
       id="path1103" />
    <path
       style="opacity:1;fill:#c55852"
       inkscape:connector-curvature="0"
       d="m 249.80171,17.850377 7.78624,-2.817838 q 4.06026,-1.469425 6.61472,-0.232972 2.5372,1.188763 3.95471,5.105672 l 0.74336,2.054007 q 1.88432,5.206705 -1.0536,7.836719 l 0.0346,0.09552 q 2.11814,-0.118266 3.52213,1.372515 1.45172,1.473563 2.52355,4.435118 l 2.12642,5.875456 q 0.51864,1.433074 0.94261,2.306047 0.40671,0.825246 1.10005,1.546806 l -5.35006,1.936225 q -0.5805,-0.70833 -0.93535,-1.39029 -0.35482,-0.681966 -1.02908,-2.544915 l -2.21279,-6.114261 q -0.8298,-2.292886 -1.92254,-2.923848 -1.04497,-0.648265 -2.86017,0.0086 l -1.81522,0.656944 5.18642,14.330745 -5.25446,1.901616 z m 12.35167,11.737721 q 1.57635,-0.570485 2.04674,-1.659143 0.51815,-1.105933 -0.17336,-3.016676 l -0.93354,-2.579519 q -0.65695,-1.815222 -1.61954,-2.385185 -0.91488,-0.587316 -2.30014,-0.08595 l -2.3884,0.864373 3.45731,9.553236 z"
       id="path1105" />
    <path
       style="opacity:1;fill:#c7ebf6"
       inkscape:connector-curvature="0"
       d="m 9.2780049,123.8471 q -1.802884,4.27671 -3.338158,6.48154 -1.535274,2.20483 -2.631723,2.31992 -1.50758,0.15819 -1.870691,-3.30239 -0.352304,-3.35781 0.326613,-6.13089 0.678917,-2.77308 2.210602,-5.01233 1.493829,-2.26981 3.706983,-3.95691 2.243827,-1.72498 4.9562811,-2.94487 2.743134,-1.25776 5.848617,-2.0339 3.105463,-0.77618 6.428972,-1.12489 3.871673,-0.40627 7.838802,-0.2336 3.963503,0.13839 7.668897,0.78872 3.705444,0.65042 6.977928,1.79652 3.268908,1.11192 5.751476,2.65265 2.513186,1.50297 4.030902,3.42213 1.551961,1.91555 1.785673,4.14268 0.276813,2.63825 -0.618487,5.33014 -0.861057,2.68841 -3.108635,5.03729 -2.21691,2.311 -5.914181,4.04994 -3.662981,1.73533 -8.997194,2.399 3.392002,-0.35588 6.04254,0.47439 2.646875,0.79612 4.554222,2.46654 1.903668,1.63617 3.029877,4.116 1.1226,2.44554 1.399472,5.08376 0.226487,2.15855 -0.122282,4.4468 -0.348796,2.28827 -1.298021,4.46616 -0.949175,2.17798 -2.506102,4.17731 -1.560452,1.96501 -3.78436,3.54929 -2.189691,1.58075 -5.057184,2.6437 -2.863883,1.09721 -6.393039,1.46753 -2.227122,0.23372 -4.72634,0.18414 -2.495659,-0.0152 -5.085034,-0.26313 -2.551556,-0.21723 -5.056119,-0.64726 -2.504564,-0.43003 -4.745789,-0.99155 -0.984528,-0.13917 -1.788633,-0.5398 -0.769853,-0.40418 -0.899292,-1.63766 -0.596759,-5.68762 -0.948458,-11.67838 -0.317219,-5.99404 -0.03751,-11.91217 0.276082,-5.95241 1.330591,-10.42775 1.05456,-4.47525 3.402099,-8.84379 2.25654,-1.93416 4.243729,-2.14264 2.50117,-0.26245 4.474872,2.3709 -1.353171,2.28964 -2.210602,5.01233 -0.823151,2.71906 -1.193478,4.80163 -0.370326,2.08258 -0.537252,5.11385 -0.132645,3.02765 -0.108344,5.90014 -0.0023,1.62833 0.06914,3.62996 0.102117,1.96373 0.197085,3.85896 0.09494,1.89524 0.224163,3.78686 0.159891,1.85382 0.339678,3.56694 0.02876,0.2741 0.0791,0.75378 0.05033,0.47968 0.172786,0.98643 0.156712,0.50316 0.340507,0.9342 0.180196,0.39677 0.47587,0.57359 2.161925,0.46596 4.610679,0.69393 2.448753,0.22796 4.84717,-0.0237 2.912368,-0.30563 5.58147,-1.27841 2.665544,-1.00714 4.631626,-2.73759 1.962557,-1.76475 2.982197,-4.26188 1.050324,-2.53498 0.662,-6.23538 -0.208546,-1.98727 -1.098915,-3.21012 -0.893978,-1.25713 -2.220934,-2.01857 -1.292652,-0.76496 -2.922644,-1.11357 -1.599366,-0.38638 -3.287082,-0.62499 -1.657148,-0.27646 -3.276341,-0.52219 -1.584913,-0.24935 -2.883135,-0.73673 -1.267526,-0.5252 -2.118363,-1.37112 -0.854469,-0.8803 -1.012622,-2.38779 -0.0755,-0.71952 -0.0609,-1.24067 0.04527,-0.55899 0.317681,-0.93398 0.306678,-0.37857 0.905405,-0.61459 0.633018,-0.23962 1.72946,-0.35469 1.47329,-0.15458 2.686898,-0.14335 1.244277,-0.0267 2.648993,-0.17401 3.2892,-0.34514 5.844759,-1.40998 2.586218,-1.10274 4.292607,-2.66739 1.740674,-1.56826 2.543776,-3.48845 0.833796,-1.95802 0.614484,-4.04808 -0.143802,-1.37051 -1.050475,-2.41848 -0.91029,-1.08225 -2.442828,-1.8221 -1.501833,-0.77767 -3.492492,-1.26157 -1.990649,-0.48391 -4.298744,-0.69205 -2.311721,-0.24241 -4.834458,-0.18552 -2.526363,0.0226 -5.096006,0.29225 -4.145838,0.435 -6.412634,0.95 -3.116209,0.67336 -5.778122,1.7148 -2.631253,1.00353 -4.633355,2.39139 -1.967812,1.38425 -2.9096341,2.97257 z"
       id="path1009" />
    <path
       style="opacity:1;fill:#c7ebf6"
       inkscape:connector-curvature="0"
       d="m 72.274616,161.36643 q -1.819969,0.38572 -3.739643,-0.86265 -1.893143,-1.28914 -3.644114,-3.73539 -1.717284,-2.45335 -3.141266,-5.84922 -1.397438,-3.43671 -2.225939,-7.34624 -0.635684,-2.99951 -0.940383,-6.59739 -0.311798,-3.63165 -0.262073,-7.55112 0.04981,-3.91952 0.395659,-7.9371 0.379652,-4.02462 1.093201,-7.80312 0.747218,-3.78558 1.830318,-7.1494 1.076016,-3.39748 2.491935,-6.02184 1.408836,-2.658022 3.193178,-4.374451 1.784468,-1.71641 3.907655,-2.166343 1.449193,-0.307123 2.535679,0.166925 1.079369,0.440362 1.847188,1.404584 0.767786,0.964183 1.26286,2.303133 0.52162,1.2981 0.82158,2.713562 0.67137,3.16805 0.62991,6.62803 -0.0149,3.41914 -0.55479,7.01988 -0.51328,3.55998 -1.4239,7.23933 -0.910625,3.67936 -1.963219,7.35361 -1.059677,3.64058 -2.167378,7.22079 -1.081114,3.53946 -1.988626,6.9012 -0.09708,0.37274 -0.185012,0.95483 -0.05424,0.57496 -0.08704,1.25102 -0.03995,0.64236 -0.05847,1.3858 -0.01853,0.74345 0.02324,1.43897 l 0.09999,0.47184 q 0.185711,0.87626 0.532781,1.6831 0.373658,0.76599 0.786083,1.38294 0.405312,0.58322 0.794347,0.92332 0.381885,0.30645 0.651509,0.24931 0.640348,-0.1357 1.392035,-0.57672 0.78543,-0.44816 1.602523,-1.07915 0.843712,-0.67185 1.699647,-1.45192 0.84883,-0.81379 1.63018,-1.61325 1.82323,-1.86546 3.75592,-4.21196 l 4.2635,6.49179 q -2.54239,2.79264 -5.11742,5.09916 -1.1307,0.97917 -2.36253,1.97978 -1.20521,0.95972 -2.47277,1.79184 -1.267568,0.8321 -2.51049,1.4477 -1.250138,0.5819 -2.396032,0.82475 z m -5.680232,-26.96905 q 0.945237,-3.0176 1.916103,-6.74501 1.004535,-3.7345 1.764071,-7.62834 0.759536,-3.89385 1.121722,-7.66832 0.355101,-3.80815 0.0085,-6.93933 -0.207133,-0.97737 -0.41739,-1.63714 -0.183693,-0.70061 -0.453361,-0.64345 -0.977365,0.20713 -1.851863,1.73068 -0.847944,1.48272 -1.536635,3.88247 -0.655023,2.39267 -1.09271,5.47877 -0.403932,3.07897 -0.527125,6.48579 -0.123192,3.40683 0.133549,6.94452 0.249609,3.50393 0.935199,6.73941 z"
       id="path1011" />
    <path
       style="opacity:1;fill:#c7ebf6"
       inkscape:connector-curvature="0"
       d="m 95.541991,154.92471 q -3.08017,0.99978 -5.76839,0.64086 -2.65537,-0.36964 -4.80176,-1.7375 -2.15701,-1.40065 -3.74109,-3.60296 -1.56202,-2.24577 -2.44478,-4.96546 -0.59562,-1.83503 -0.72646,-4.58147 -0.14151,-2.7793 -0.0587,-4.97933 0.11551,-2.21074 0.65528,-4.34184 0.52915,-2.16388 1.56765,-3.98594 1.06062,-1.86555 2.64036,-3.24757 1.60188,-1.42546 3.86286,-2.15933 1.83503,-0.59564 3.59934,-0.51635 1.76432,0.0793 3.26212,0.78836 1.52001,0.66568 2.66465,1.9603 1.14463,1.29464 1.75085,3.16236 0.65941,2.03157 0.13487,4.9908 -0.49177,2.94863 -1.6762,5.32513 -1.18452,2.37656 -3.18472,4.58331 -1.96745,2.19607 -4.563,3.90785 0.7787,0.72521 1.42887,1.16609 0.68298,0.43028 1.28087,0.59844 0.59789,0.16817 1.16471,0.12904 0.5996,-0.0498 1.22222,-0.25185 1.96612,-0.63818 3.87348,-2.12655 1.9402,-1.49906 3.621619,-3.34876 1.68151,-1.84973 3.06978,-3.82158 1.37767,-2.00461 2.25144,-3.66459 l 5.65232,3.0189 q -1.91573,3.91786 -4.41523,7.26459 -1.08994,1.44038 -2.41987,2.92247 -1.29717,1.47143 -2.85483,2.81009 -1.53549,1.29525 -3.319919,2.38154 -1.76226,1.04287 -3.72838,1.68105 z m -9.35704,-13.98628 q 1.1796,-0.38287 2.36446,-1.41944 1.20692,-1.07994 2.07818,-2.41308 0.904,-1.34382 1.5297,-3.32167 0.6257,-1.97786 0.2854,-3.02647 -0.47861,-1.47455 -1.34407,-2.24401 -0.83276,-0.78014 -1.61914,-0.52484 -1.40901,0.45733 -2.25471,1.31134 -0.81282,0.84335 -1.2245,1.91871 -0.38945,1.03192 -0.46443,2.25157 -0.0529,1.17621 -0.0994,2.92991 -0.0138,1.743 0.25043,2.78015 0.26417,1.03706 0.49816,1.75794 z"
       id="path1013" />
    <path
       style="opacity:1;fill:#c7ebf6"
       inkscape:connector-curvature="0"
       d="m 107.17282,143.32989 q -1.11134,-1.9837 -2.319,-4.7031 -1.2245,-2.74951 -2.5982,-6.04728 -1.39056,-3.32787 -2.337359,-6.07502 -0.94675,-2.74717 -1.51945,-4.75618 -0.44396,-1.56776 -0.0342,-3.02148 0.43977,-1.4705 2.062749,-2.37981 1.62299,-0.90929 2.80983,-0.27103 1.18682,0.63819 2.11297,2.29129 0.2523,0.45099 0.6002,1.28276 0.3308,0.8019 0.7025,1.81778 0.38495,0.96906 0.79031,2.04503 0.38856,1.04595 0.94551,2.39248 0.57015,1.29964 0.83361,1.98134 0.24661,0.65162 0.36448,0.86201 l 0.6011,-0.33677 q -0.005,-0.43165 -0.0183,-1.37186 -0.0302,-0.97029 -0.29394,-2.63911 -0.26368,-1.66881 -0.28192,-3.04071 -0.005,-1.41875 -0.033,-2.66678 -0.0447,-1.27807 -0.0449,-2.26521 -1.9e-4,-0.98713 0.008,-1.46564 0.0525,-2.16188 0.94794,-3.45332 0.89553,-1.29151 2.39829,-2.13344 1.50277,-0.84192 3.08161,-0.0679 1.60894,0.75717 2.85492,2.98125 0.18514,0.33067 0.47278,1.19628 0.31758,0.8488 0.71339,2.04868 0.39581,1.19988 1.08513,3.06462 0.71936,1.84789 1.26668,3.31821 0.54733,1.47033 1.13795,2.87697 0.62066,1.38976 1.2437,2.50183 1.04399,1.86346 2.16837,2.8131 1.1544,0.93276 2.14629,0.37707 0.36064,-0.2021 0.8703,-0.84299 0.78974,-0.91632 0.90875,-1.3384 0.74991,-1.76272 0.82688,-1.7664 0.107,-0.0205 1.34015,-2.33039 1.54574,-2.8799 3.63575,-6.97309 l 3.74178,6.74924 -0.86288,1.98405 q -0.0961,0.25131 -1.94962,3.14576 -2.67206,4.18225 -3.398,5.14189 -1.75494,2.36536 -2.24189,2.83553 -1.23334,1.3228 -2.88644,2.24895 -1.65301,0.9261 -4.1254,-0.8084 -2.45915,-1.78139 -5.03548,-6.37991 -1.01033,-1.80334 -1.93171,-4.01182 -0.93825,-2.2386 -1.92467,-4.84509 l -0.48088,0.26944 0.88138,20.04019 q 0.0761,1.61596 -0.40953,2.44087 -0.49881,0.8718 -1.49067,1.42749 -1.2323,0.69039 -2.26991,0.6004 -1.05448,-0.12003 -1.9636,-0.75586 -0.89587,-0.68274 -1.66917,-1.7106 -0.76008,-1.07475 -1.43361,-2.27695 z"
       id="path1015" />
    <path
       style="opacity:1;fill:#c7ebf6"
       inkscape:connector-curvature="0"
       d="m 130.75829,101.44112 q -0.73534,2.41756 -0.61199,4.9726 0.1214,2.50628 1.47692,5.4037 1.37885,2.87205 2.5253,4.77798 1.14645,1.90591 2.4107,3.07595 0.50568,0.46799 1.10499,0.83485 0.62268,0.34158 1.30804,0.41255 0.68535,0.071 1.45302,-0.25129 0.76767,-0.32227 1.58666,-1.20722 0.4212,-0.45513 0.59145,-1.09557 0.19365,-0.66572 0.21404,-1.3979 -0.005,-0.75555 -0.13241,-1.53078 -0.12941,-0.82387 -0.3543,-1.59527 -0.50792,-1.78441 -1.4362,-3.72311 -0.42418,-0.25174 -1.22951,-0.90314 -0.83061,-0.67484 -2.42162,-2.10039 -1.61636,-1.44894 -2.65113,-2.35967 -1.03476,-0.91073 -1.89255,-1.6576 -0.83438,-0.77216 -1.38878,-1.23832 -0.55437,-0.46612 -0.55248,-0.41743 z m 31.52249,-3.121436 q -0.27076,3.082216 -0.79811,5.833036 -0.22347,1.15445 -0.5171,2.38474 -0.31896,1.20691 -0.69036,2.31827 -0.3967,1.08802 -0.87112,2.05717 -0.47633,0.92046 -1.06131,1.55256 -0.3276,0.35398 -1.13452,0.92156 -0.78349,0.54228 -2.01085,0.95549 -1.22923,0.36452 -2.88637,0.37988 -1.63373,-0.01 -3.66181,-0.76025 0.0445,1.77797 -0.10397,3.61212 -0.15031,1.78546 -0.59645,3.48491 -0.4228,1.67409 -1.11994,3.18821 -0.69905,1.46542 -1.77543,2.62847 -1.52103,1.64351 -3.35213,2.20194 -1.80781,0.53319 -3.71971,0.26587 -1.91377,-0.31594 -3.77993,-1.29203 -1.84278,-1.00138 -3.43575,-2.47548 -1.61822,-1.49763 -2.88731,-3.42316 -1.27097,-1.97421 -2.08796,-4.18547 -0.81887,-2.25994 -1.6237,-4.78849 -0.78148,-2.55392 -0.69792,-5.43383 0.10693,-2.90519 0.9668,-5.25446 0.85986,-2.34928 2.46122,-4.434643 -3.16621,-3.071036 -5.22672,-5.916735 -2.0605,-2.845699 -4.14542,-6.324282 -2.08492,-3.478583 -3.48269,-6.837509 -1.37434,-3.38423 -1.90402,-6.36227 -0.52974,-2.978126 -0.11187,-5.407767 0.39266,-2.453084 1.89021,-4.071252 1.09977,-1.188351 2.5041,-1.437775 1.37906,-0.272806 2.88369,0.180892 1.50277,0.405083 3.07872,1.441109 1.55069,1.012624 2.99185,2.346438 0.88499,0.819038 1.75029,1.760639 3.26093,3.628106 5.6278,7.461442 2.34157,3.809953 4.25062,7.782898 1.90906,3.972945 3.58036,8.101403 2.56037,6.312534 3.64037,8.391693 0.23696,0.454036 0.62564,1.048439 0.38868,0.59443 0.87852,1.28246 0.48795,0.63934 1.04985,1.30016 0.53663,0.63745 1.11816,1.17563 0.73325,0.6786 1.46085,1.21113 0.751,0.50726 1.46919,0.79641 0.69289,0.26572 1.30054,0.2178 0.63101,-0.0732 1.099,-0.57887 0.4446,-0.48041 0.7824,-1.20046 0.33592,-0.76874 0.59222,-1.70504 0.25629,-0.93631 0.43668,-1.94283 0.17857,-1.055204 0.31036,-2.059848 0.27562,-2.326616 0.39012,-5.037101 z M 124.68889,73.762608 q -1.62954,-1.78971 -2.6662,-2.749112 -1.36537,-1.263607 -2.1304,-1.502153 -0.74157,-0.263841 -1.16274,0.191268 -0.74877,0.809092 -0.32051,2.425859 0.40298,1.593382 1.5279,3.573274 1.12496,1.979876 2.69556,4.137546 1.57063,2.15766 3.13184,4.071916 1.56122,1.914251 2.86204,3.399761 1.30082,1.48551 1.86087,2.097703 1.14532,1.247699 2.23825,2.400018 1.091,1.103548 2.02842,2.018056 0.91215,0.891111 1.62012,1.546307 0.70797,0.655195 1.08723,1.006191 l 0.25285,0.233993 q -1.95322,-4.483231 -4.09173,-8.715488 -0.92264,-1.792652 -1.97172,-3.702362 -1.051,-1.958376 -2.19591,-3.815417 -1.14456,-1.857242 -2.35556,-3.541257 -1.18759,-1.709308 -2.41069,-3.075955 z"
       id="path1017" />
    <path
       style="opacity:1;fill:#c7ebf6"
       inkscape:connector-curvature="0"
       d="m 170.68134,91.209872 q -1.5243,2.857245 -3.70912,4.464023 -2.16855,1.576367 -4.66331,2.080699 -2.52507,0.48806 -5.19398,0.0014 -2.68303,-0.53334 -5.20587,-1.879234 -1.70218,-0.908067 -3.70209,-2.795014 -2.03038,-1.903192 -3.49738,-3.54483 -1.45078,-1.67202 -2.54083,-3.58117 -1.12073,-1.925158 -1.63696,-3.957992 -0.53072,-2.079315 -0.35208,-4.170618 0.16446,-2.137959 1.2833,-4.235266 0.90807,-1.702182 2.23359,-2.869309 1.32552,-1.167136 2.89608,-1.69584 1.55645,-0.575348 3.27892,-0.437352 1.72257,0.137989 3.45504,1.062302 1.88458,1.005404 3.56019,3.500245 1.69185,2.464449 2.48796,4.997685 0.79611,2.533231 0.88696,5.510255 0.10701,2.946556 -0.57423,5.98021 1.06392,-0.01811 1.83807,-0.151768 0.79037,-0.164056 1.33758,-0.457849 0.5472,-0.29378 0.92823,-0.715252 0.39725,-0.451863 0.7054,-1.029415 0.97299,-1.823729 1.31366,-4.219078 0.35699,-2.425674 0.28429,-4.92439 -0.0727,-2.498715 -0.44119,-4.881964 -0.39896,-2.399493 -0.92159,-4.201038 l 6.16487,-1.748139 q 1.33901,4.150446 1.86138,8.294803 0.21458,1.793491 0.28529,3.783551 0.0869,1.959689 -0.10587,4.004427 -0.20693,1.998173 -0.73812,4.018541 -0.54535,1.973819 -1.51834,3.797548 z m -16.44252,-3.579274 q 0.58378,-1.094263 0.71766,-2.662774 0.11974,-1.615157 -0.17795,-3.179614 -0.28149,-1.594931 -1.20336,-3.453385 -0.92186,-1.858454 -1.89452,-2.377344 -1.36784,-0.729748 -2.525,-0.683234 -1.14094,0.01607 -1.53011,0.745573 -0.6973,1.30704 -0.71365,2.508728 -1.6e-4,1.171305 0.4496,2.231229 0.43556,1.013272 1.22788,1.943547 0.77808,0.883648 1.96144,2.178784 1.19953,1.264663 2.10937,1.828139 0.90984,0.563479 1.57855,0.920209 z"
       id="path1019" />
    <path
       style="opacity:1;fill:#c7ebf6"
       inkscape:connector-curvature="0"
       d="m 170.72172,73.759817 q -1.38737,-0.610621 -3.14683,-1.573264 -1.79101,-0.976524 -3.72947,-2.130841 -1.92459,-1.185885 -3.88465,-2.462604 -1.97761,-1.322125 -4.12418,-2.944496 -2.17814,-1.636246 -3.60586,-2.753927 -1.42768,-1.117702 -2.28781,-1.985619 -0.58266,-0.557589 -0.88156,-0.990292 -0.29888,-0.432678 -0.3808,-0.845162 -0.0996,-0.457883 0.0455,-0.958616 0.12747,-0.546142 0.44667,-1.27136 0.36084,-0.819826 0.64973,-1.219627 0.27124,-0.445218 0.68371,-0.527152 0.38094,-0.09582 0.96239,0.122477 0.59533,0.186752 1.57279,0.61696 1.1667,0.513556 3.24144,1.61494 2.07476,1.10138 3.7106,1.746141 l 0.15267,-0.346853 q -0.98372,-1.185809 -2.61688,-3.033818 -1.63321,-1.84809 -2.53108,-3.485418 -0.89785,-1.637332 -1.22936,-3.364124 -0.36304,-1.740687 0.40028,-3.474888 0.2637,-0.599104 0.73421,-1.069513 0.43901,-0.484297 0.99784,-0.727683 0.57269,-0.274902 1.25128,-0.277332 0.64707,-0.01632 1.34074,0.289033 0.53604,0.235937 1.44411,0.823814 0.87657,0.57402 2.26894,1.600914 1.39237,1.026893 2.33198,1.628714 0.90809,0.587898 1.57028,0.879377 1.13515,0.499665 1.98906,0.611955 0.85391,0.112371 1.47957,-0.02631 0.60799,-0.184076 0.9915,-0.542263 0.39738,-0.389708 0.61944,-0.894208 0.62451,-1.418914 0.66012,-3.210026 0.0355,-1.791133 -0.19754,-3.399355 -0.26214,-1.884504 -0.80423,-3.816962 l 7.17026,3.720644 q 0.17518,1.055751 0.37934,2.387723 0.20415,1.331976 0.27589,2.79386 0.054,1.416451 -0.10504,2.889662 -0.17678,1.427779 -0.75969,2.752168 -1.04091,2.364891 -2.62522,3.398988 -1.61589,1.020204 -3.53573,1.19154 -1.95132,0.157419 -4.05511,-0.279258 -2.13538,-0.450579 -4.23293,-1.072644 l -0.22205,0.504509 13.25017,12.569971 q 1.03545,0.982735 1.67485,1.753501 0.62175,0.725342 0.94584,1.357326 0.3241,0.631965 0.33664,1.202136 -0.019,0.556248 -0.26881,1.123815 -0.56903,1.292801 -1.45205,1.845164 -0.91448,0.538481 -2.02326,0.577426 -1.12636,-0.0064 -2.36246,-0.362308 -1.25372,-0.401269 -2.51497,-0.956456 z"
       id="path1021" />
    <path
       style="opacity:1;fill:#edc3a2"
       inkscape:connector-curvature="0"
       d="m 57.639268,177.13926 5.447739,-1.24404 3.336478,14.61015 3.597377,-16.19316 5.447739,-1.24404 -3.581155,14.20926 11.596995,20.43531 -5.69532,1.30061 -8.13447,-14.4 -1.172513,4.90535 2.522294,11.04454 -5.447739,1.24404 z"
       id="path1054" />
    <path
       style="opacity:1;fill:#edc3a2"
       inkscape:connector-curvature="0"
       d="m 77.668671,172.44921 14.63716,-4.24569 1.41513,4.87888 -9.26993,2.68879 2.61807,9.02603 7.36717,-2.13688 1.41513,4.87888 -7.36717,2.13688 3.04276,10.49001 9.269929,-2.68879 1.41514,4.87888 -14.637159,4.24569 z"
       id="path1056" />
    <path
       style="opacity:1;fill:#edc3a2"
       inkscape:connector-curvature="0"
       d="m 106.37309,184.90472 -13.392969,-16.8315 5.57792,-2.05256 8.084529,10.93702 0.0954,-0.0351 -0.93313,-13.56823 5.10115,-1.87715 0.71157,21.49847 5.22811,14.20737 -5.24419,1.92978 z"
       id="path1058" />
    <path
       style="opacity:1;fill:#edc3a2"
       inkscape:connector-curvature="0"
       d="m 111.23924,161.55313 7.13838,-3.55715 14.53398,21.19339 0.0908,-0.0455 -8.16841,-24.3651 7.13839,-3.55716 15.85986,31.82709 -4.72864,2.35635 -12.00808,-24.0974 -0.0908,0.0455 8.37063,25.90996 -4.183,2.08444 -15.64543,-22.28489 -0.0908,0.0455 12.00808,24.0974 -4.36485,2.17505 z"
       id="path1060" />
    <path
       style="opacity:1;fill:#edc3a2"
       inkscape:connector-curvature="0"
       d="m 136.06553,148.29354 6.23126,-4.29695 24.95482,25.98722 -4.60029,3.17227 -4.84498,-5.23635 0.0576,0.0837 -5.22755,3.60481 3.11449,6.30623 -4.26572,2.94155 z m 18.51476,16.11109 -12.02726,-13.05662 -0.0837,0.0576 7.97101,15.8546 z"
       id="path1062" />
    <path
       style="opacity:1;fill:#edc3a2"
       inkscape:connector-curvature="0"
       d="m 146.32023,141.19519 6.02675,-5.60396 q 3.05059,-2.83662 6.09795,-2.61803 3.04737,0.2186 5.98779,3.38074 l 2.3869,2.56696 q 2.94037,3.16216 2.93718,6.21737 -0.003,3.05523 -3.05371,5.89181 l -1.93447,1.7988 9.85915,10.60295 -4.09224,3.80523 z m 16.92353,6.11441 q 1.00446,-0.93401 0.96917,-1.94173 0.002,-1.04233 -1.24338,-2.38158 l -2.8712,-3.08779 q -1.24533,-1.33926 -2.28503,-1.41299 -1.00251,-0.10832 -2.00694,0.82567 l -1.93447,1.7988 7.43766,7.99881 z"
       id="path1064" />
    <path
       style="opacity:1;fill:#edc3a2"
       inkscape:connector-curvature="0"
       d="m 169.43417,123.88972 -3.34158,4.792 -4.16693,-2.90573 9.87979,-14.1677 4.16692,2.90573 -3.34158,4.792 25.00154,17.43393 -3.19631,4.58364 z"
       id="path1066" />
    <path
       style="opacity:1;fill:#edc3a2"
       inkscape:connector-curvature="0"
       d="m 171.82281,111.28696 3.94902,-7.2781 q 2.05933,-3.79534 4.79015,-4.567614 2.68622,-0.796526 6.34763,1.190014 l 1.92001,1.04177 q 4.86691,2.64073 4.4175,6.55818 l 0.0893,0.0485 q 1.50486,-1.4953 3.54462,-1.31334 2.06397,0.1373 4.83229,1.63938 l 5.49205,2.97991 q 1.33953,0.72681 2.23632,1.09782 0.85217,0.34678 1.84975,0.42565 l -2.71338,5.00089 q -0.90443,-0.14396 -1.62264,-0.4181 -0.71822,-0.2741 -2.45958,-1.21891 l -5.71531,-3.101 q -2.14327,-1.16286 -3.3792,-0.90875 -1.21181,0.20948 -2.13239,1.90618 l -0.92059,1.69671 13.39528,7.2681 -2.66493,4.9116 z m 17.02967,0.57026 q 0.79948,-1.47347 0.42808,-2.59974 -0.34723,-1.17096 -2.13323,-2.13999 l -2.41118,-1.30829 q -1.6967,-0.92058 -2.79495,-0.70739 -1.07399,0.16859 -1.77658,1.46347 l -1.21131,2.23255 8.9302,4.84536 z"
       id="path1068" />
    <path
       style="opacity:1;fill:#edc3a2"
       inkscape:connector-curvature="0"
       d="m 183.18976,89.235091 3.31818,-6.803139 34.4997,10.383239 -2.44963,5.022506 -6.79199,-2.182274 0.0913,0.04455 -2.78365,5.707367 5.80981,3.96408 -2.27144,4.65716 z m 24.04033,4.943081 -16.88877,-5.468215 -0.0445,0.0913 14.72882,9.896464 z"
       id="path1070" />
    <path
       style="opacity:1;fill:#edc3a2"
       inkscape:connector-curvature="0"
       d="m 191.5918,72.207854 2.64326,-4.923334 31.3306,16.82018 -2.64327,4.923334 z"
       id="path1072" />
    <path
       style="opacity:1;fill:#edc3a2"
       inkscape:connector-curvature="0"
       d="m 199.4798,57.790265 4.16379,-5.6399 20.35255,8.269648 0.0603,-0.08172 -17.12417,-12.642722 2.95689,-4.005127 28.60805,21.120598 -3.4095,4.618169 -24.86634,-10.023761 -0.0603,0.08172 20.88424,15.418574 -2.95688,4.005127 z"
       id="path1074" />
    <path
       style="opacity:1;fill:#edc3a2"
       inkscape:connector-curvature="0"
       d="m 221.37274,32.129962 12.21826,-9.109352 3.03638,4.072641 -7.73812,5.769184 5.61732,7.534472 6.14973,-4.584953 3.03637,4.072641 -6.14973,4.584953 6.52812,8.756027 7.73812,-5.769183 3.03638,4.072641 -12.21826,9.109352 z"
       id="path1076" />
    <path
       style="opacity:1;fill:#edc3a2"
       inkscape:connector-curvature="0"
       d="m 247.13824,15.917105 7.78623,-2.817839 q 4.06026,-1.469425 6.61472,-0.232971 2.53721,1.188763 3.95472,5.105671 l 0.74336,2.054008 q 1.88432,5.206704 -1.0536,7.836719 l 0.0346,0.09552 q 2.11815,-0.118267 3.52214,1.372515 1.45171,1.473563 2.52355,4.435118 l 2.12641,5.875455 q 0.51864,1.433075 0.94261,2.306047 0.40671,0.825246 1.10005,1.546807 l -5.35006,1.936225 q -0.58049,-0.70833 -0.93534,-1.39029 -0.35482,-0.681966 -1.02908,-2.544915 l -2.21279,-6.114262 q -0.82981,-2.292885 -1.92255,-2.923848 -1.04497,-0.648265 -2.86017,0.0086 l -1.81522,0.656945 5.18642,14.330745 -5.25445,1.901616 z m 12.35167,11.737721 q 1.57634,-0.570485 2.04674,-1.659143 0.51815,-1.105933 -0.17337,-3.016676 l -0.93355,-2.579515 q -0.65694,-1.815221 -1.61954,-2.385184 -0.91488,-0.587316 -2.30013,-0.08595 l -2.3884,0.864373 3.45731,9.553236 z"
       id="path1078" />
  </g>
</svg>
