<?xml version="1.0" encoding="UTF-8"?>
<svg id="svg8" width="1405.1" height="786.81" version="1.1" viewBox="0 0 371.76 208.18" xmlns="http://www.w3.org/2000/svg" xmlns:cc="http://creativecommons.org/ns#" xmlns:dc="http://purl.org/dc/elements/1.1/" xmlns:rdf="http://www.w3.org/1999/02/22-rdf-syntax-ns#">
 <metadata id="metadata5">
  <rdf:RDF>
   <cc:Work rdf:about="">
    <dc:format>image/svg+xml</dc:format>
    <dc:type rdf:resource="http://purl.org/dc/dcmitype/StillImage"/>
    <dc:title/>
    <dc:creator>
     <cc:Agent>
      <dc:title>David Lettier</dc:title>
     </cc:Agent>
    </dc:creator>
    <dc:rights>
     <cc:Agent>
      <dc:title>(C) 2020 David Lettier</dc:title>
     </cc:Agent>
    </dc:rights>
   </cc:Work>
  </rdf:RDF>
 </metadata>
 <path id="path894" d="m237.8 60.12 10.708-30.494 32.683 19.085-1.4961 37.447z" fill="#2bbb92" fill-rule="evenodd" stroke="#2bbb92" stroke-dashoffset="1107.4" stroke-linejoin="round" stroke-width="7.1867"/>
 <path id="path896" d="m281.82 87.557 35.798-26.154-7.235-29.888-26.553 20.421z" fill="#29b08a" fill-rule="evenodd" stroke="#29b08a" stroke-dashoffset="1107.4" stroke-linejoin="round" stroke-width="7.1867"/>
 <path id="path892" d="m281.19 48.711 29.192-17.195-27.226-17.878-34.648 15.988z" fill="#74d191" fill-rule="evenodd" stroke="#74d191" stroke-dashoffset="1107.4" stroke-linejoin="round" stroke-width="7.1866"/>
 <path id="path991" d="m281.24 50.966c0.8872 0.61547 33.149-17.525 31.406-19.207 1.894-2.7922-29.458-21.757-29.492-20.506-1.1015-0.35819-37.745 15.768-36.894 17.586-5.4976 1.7684 32.283 22.269 34.98 22.126z" fill="none" stroke="#bbe9c9" stroke-dashoffset="1107.4" stroke-linejoin="round" stroke-width="2.6458"/>
 <path id="path1157" d="m280.66 36.397-3.7425-12.18-5.6191 3.2795-1.9226-1.7393 9.037-5.2743 1.8841 1.7045 3.7425 12.18 5.9088-3.4486 1.9226 1.7393-9.3266 5.4433z" fill="#fff"/>
 <path id="path989" d="m258.26 51.103a5.2989 5.4981 82.32 0 1 6.4412 4.133 5.2989 5.4981 82.32 0 1-4.3452 6.2572 5.2989 5.4981 82.32 0 1-6.4421-4.1318 5.2989 5.4981 82.32 0 1 4.344-6.258" fill="#2b8b7c" style="paint-order:markers stroke fill"/>
 <path id="path890" d="m66.765 160.64s39.968-143.93 191.63-104.72" fill="none" stroke="#29b08a" stroke-dashoffset="1107.4" stroke-linecap="round" stroke-linejoin="round" stroke-width="7.9343"/>
 <path id="path927" d="m80.546 127.3c6.9968-14.483 59.013-106.99 178.4-72.793" fill="none" stroke="#74d191" stroke-dashoffset="1107.4" stroke-linecap="round" stroke-linejoin="round" stroke-width="4.7625"/>
 <path id="path872" d="m16.983 170.62 11.471-33.776 36.301 20.725-1.2215 41.353z" fill="#2bbb92" fill-rule="evenodd" stroke="#2bbb92" stroke-dashoffset="1107.4" stroke-linejoin="round" stroke-width="7.9343"/>
 <path id="path876" d="m65.44 198.63 39.677-27.432-6.5716-33.252-30.272 21.677z" fill="#29b08a" fill-rule="evenodd" stroke="#29b08a" stroke-dashoffset="1107.4" stroke-linejoin="round" stroke-width="7.9343"/>
 <path id="path874" d="m64.756 157.57 33.79-19.624-32.023-19.114-38.069 18.013z" fill="#74d191" fill-rule="evenodd" stroke="#74d191" stroke-dashoffset="1107.4" stroke-linejoin="round" stroke-width="7.9343"/>
 <path id="path1154" d="m54.53 130.51 4.7357-2.826 18.621 11.137-3.4962 2.0863-3.6138-2.2614 0.04287 0.038-3.9729 2.3708 2.2996 2.9821-3.2419 1.9345zm13.841 6.6152-8.9705-5.644-0.0636 0.0379 5.8876 7.4837z" fill="#fff"/>
 <path id="path993" d="m64.752 160.18c0.9376 0.65043 38.246-20.387 36.404-22.164 1.9783-2.9508-33.419-22.015-34.588-22.292-0.76337-1.4766-39.371 16.353-40.338 19.933-5.6026 2.9055 35.672 24.675 38.522 24.523z" fill="none" stroke="#bbe9c9" stroke-dashoffset="1107.4" stroke-linejoin="round" stroke-width="2.7961"/>
 <path id="path1039" d="m63.614 32.451q-3.6997 2.8023-6.1317 3.9441-2.432 1.1418-3.4391 0.69325-1.3847-0.61679 0.03113-3.7953 1.3738-3.0841 3.3483-5.1462t4.4206-3.2355q2.4286-1.2188 5.1888-1.5733 2.8057-0.37196 5.7647-0.07219 3.0045 0.28232 6.082 1.1629 3.0775 0.88054 6.1301 2.2403 3.5561 1.584 6.9054 3.7171 3.3633 2.1016 6.2471 4.5175 2.8838 2.416 5.1448 5.0448 2.275 2.5974 3.6546 5.173 1.425 2.5582 1.7798 4.9791 0.38626 2.4349-0.5249 4.4805-1.0794 2.4232-3.2007 4.3068-2.0898 1.8977-5.2108 2.8081-3.0754 0.89293-7.1468 0.55026-4.0399-0.32865-8.9913-2.421 3.1155 1.3878 4.9958 3.4321 1.8942 2.0129 2.7108 4.4132 0.83054 2.3688 0.56595 5.0795-0.25057 2.6792-1.3299 5.1024-0.88313 1.9826-2.3293 3.7899-1.4462 1.8073-3.3572 3.2188-1.911 1.4116-4.259 2.3646-2.3339 0.92153-5.052 1.1816-2.6867 0.27412-5.7015-0.23908-3.0288-0.48173-6.2703-1.9256-2.0456-0.91116-4.1852-2.2037-2.1537-1.261-4.2722-2.7704-2.1011-1.4639-4.0551-3.0886-1.954-1.6247-3.6142-3.2316-0.78304-0.61279-1.2791-1.3618-0.46462-0.73496 0.04002-1.8679 2.327-5.224 5.0178-10.588 2.7223-5.3496 5.9236-10.335 3.2153-5.0169 6.3662-8.3654 3.1509-3.3484 7.3682-5.9579 2.9213-0.54676 4.7465 0.26628 2.2973 1.0233 2.6899 4.2907-2.3167 1.3063-4.4206 3.2355-2.0724 1.9432-3.4344 3.5616-1.362 1.6184-3.0222 4.1601-1.6287 2.5557-3.0439 5.0555-0.81619 1.409-1.7551 3.1782-0.89343 1.7517-1.7588 3.4405-0.8654 1.6888-1.6993 3.3916-0.78844 1.6854-1.4893 3.2589-0.11214 0.25176-0.30839 0.69234-0.19625 0.44058-0.34358 0.94067-0.11586 0.5141-0.17221 0.97929-0.04233 0.43371 0.12532 0.73468 1.6393 1.4845 3.646 2.9063 2.0067 1.4218 4.2096 2.4031 2.675 1.1915 5.4729 1.6836 2.812 0.46056 5.3799-0.05501 2.582-0.54704 4.7136-2.1998 2.1771-1.6702 3.691-5.069 0.81303-1.8253 0.65337-3.3295-0.14564-1.5357-0.9141-2.8586-0.73699-1.3088-1.9743-2.4257-1.1919-1.1343-2.5342-2.1848-1.2969-1.068-2.5763-2.0904-1.2479-1.0084-2.1285-2.0796-0.83511-1.0886-1.149-2.2466-0.29984-1.1896 0.31694-2.5742 0.29438-0.66087 0.56759-1.1049 0.3187-0.46147 0.74211-0.65001 0.45488-0.17452 1.0914-0.07955 0.66802 0.10899 1.6751 0.55756 1.3532 0.60277 2.3986 1.2193 1.0909 0.59906 2.3811 1.1738 3.0211 1.3457 5.7667 1.7013 2.7911 0.33811 5.0512-0.16372 2.2916-0.48782 3.9472-1.7492 1.7011-1.2788 2.5562-3.1985 0.56072-1.2588 0.2995-2.6197-0.24721-1.3924-1.2045-2.7994-0.91179-1.4244-2.3938-2.8388-1.482-1.4144-3.3768-2.7487-1.8808-1.3658-4.094-2.5779-2.1992-1.2436-4.5594-2.2949-3.8079-1.6962-6.0285-2.3836-3.0354-0.97495-5.8614-1.404-2.7805-0.44654-5.2083-0.24567-2.3963 0.21489-4.0061 1.1195z" fill="#3c5094"/>
 <path id="path1041" d="m99.411 96.442q-1.769-0.57594-2.8073-2.6169-0.99494-2.063-1.2882-5.057-0.26054-2.9833 0.20419-6.6362 0.50814-3.675 1.7454-7.475 0.94924-2.9155 2.4843-6.1837 1.5457-3.301 3.5486-6.6705 2.0028-3.3695 4.3112-6.6759 2.3411-3.2956 4.8483-6.2111 2.5399-2.9048 5.1598-5.2764 2.6306-2.4043 5.169-3.9691 2.5491-1.5975 4.9526-2.1918 2.4036-0.59422 4.4673 0.07772 1.4086 0.45862 2.1125 1.4124 0.71458 0.92105 0.89742 2.14 0.18283 1.2189-0.0579 2.626-0.19731 1.385-0.64527 2.7608-1.0026 3.0793-2.7685 6.055-1.7225 2.9536-3.9904 5.802-2.2245 2.8264-4.8528 5.5575t-5.377 5.3868q-2.738 2.623-5.4874 5.1697-2.706 2.5247-5.1728 4.9823-0.27044 0.27426-0.63764 0.7344-0.33445 0.47081-0.70089 1.0399-0.35577 0.53632-0.74354 1.1709t-0.69936 1.2578l-0.14932 0.45862q-0.2773 0.85172-0.38015 1.724-0.0594 0.8502-0.0107 1.5907 0.0594 0.70774 0.22626 1.1968 0.1775 0.45633 0.43957 0.54166 0.62241 0.20265 1.4939 0.19656 0.90428 0.0046 1.9274-0.13331 1.0666-0.15998 2.1979-0.40757 1.142-0.28035 2.2184-0.58203 2.5117-0.70392 5.3587-1.7697l0.44641 7.7538q-3.5981 1.1473-6.9814 1.8573-1.4688 0.28263-3.0359 0.53327-1.5236 0.22854-3.0374 0.31539-1.5138 0.08684-2.898-0.0015-1.3736-0.12113-2.4874-0.48376zm8.5653-26.196q2.3274-2.1407 5.0319-4.8833 2.7372-2.7319 5.3419-5.7243 2.6047-2.9924 4.8056-6.0801 2.2116-3.1204 3.477-6.0054 0.3093-0.94999 0.4571-1.6265 0.19122-0.69859-0.0709-0.78392-0.94999-0.3093-2.4691 0.57288-1.4757 0.8601-3.272 2.594-1.7636 1.7446-3.6857 4.1984-1.8893 2.4645-3.6994 5.3533-1.8101 2.8888-3.3566 6.0809-1.5358 3.1593-2.5598 6.3041z" fill="#3c5094"/>
 <path id="path1043" d="m122.78 102.5q-3.1674-0.67425-5.316-2.3292-2.1148-1.6478-3.2897-3.9056-1.1677-2.2915-1.4384-4.9908-0.22986-2.7259 0.36549-5.5226 0.40169-1.887 1.6616-4.3309 1.2671-2.4777 2.4388-4.3416 1.2054-1.8568 2.7384-3.4325 1.5402-1.6094 3.3506-2.6681 1.8513-1.0853 3.9104-1.4923 2.1-0.43354 4.425 0.06139 1.887 0.40168 3.3753 1.3525t2.4309 2.3138q0.98352 1.3365 1.3275 3.03 0.34396 1.6935-0.0649 3.6141-0.44472 2.0891-2.3786 4.3896-1.9002 2.3077-4.1142 3.7736-2.2141 1.4659-5.0497 2.3769-2.8019 0.91813-5.9056 1.1028 0.31177 1.0174 0.6544 1.7243 0.37633 0.71412 0.81004 1.1587t0.94415 0.6941q0.54414 0.25672 1.1844 0.39301 2.0218 0.43038 4.4178 0.09509 2.4298-0.32812 4.8108-1.0893 2.3811-0.76116 4.5693-1.7747 2.1954-1.0472 3.7821-2.0479l3.3856 5.4406q-3.618 2.4351-7.456 4.0837-1.6641 0.70244-3.5569 1.321-1.8591 0.62571-3.8774 1.0062-1.9774 0.35397-4.0659 0.40251-2.0476 0.022-4.0694-0.40836zm-1.1103-16.791q1.213 0.25823 2.7574-0.04704 1.5852-0.33179 3.0063-1.0507 1.4548-0.71178 2.9856-2.1118t1.7604-2.4783q0.32278-1.5163-0.042-2.6154-0.33112-1.092-1.1398-1.2641-1.4489-0.30844-2.6083 0.0083-1.1256 0.32395-2.0198 1.0494-0.85324 0.69894-1.528 1.7177-0.63388 0.9922-1.551 2.4877-0.88343 1.5026-1.1732 2.5329-0.28975 1.0302-0.44755 1.7715z" fill="#3c5094"/>
 <path id="path1045" d="m138.65 98.271q0.0294-2.2736 0.34324-5.2325 0.31431-2.9934 0.77353-6.5362 0.45967-3.5773 1.0133-6.4298 0.55367-2.8525 1.0622-4.8787 0.3994-1.5797 1.4811-2.6338 1.1161-1.0536 2.9763-1.0296 1.8602 0.02403 2.5689 1.1702 0.70872 1.1461 0.68424 3.0408-7e-3 0.51672-0.12159 1.411-0.11447 0.85987-0.30051 1.9255-0.15115 1.0317-0.33808 2.1662-0.18648 1.1001-0.37741 2.5447-0.15605 1.4106-0.26874 2.1327-0.11224 0.68763-0.11536 0.92876l0.68896 0.0089q0.21159-0.37626 0.6701-1.1972 0.45895-0.85542 1.065-2.4325t1.2762-2.7743q0.70499-1.2312 1.3048-2.326 0.60031-1.1292 1.0937-1.9842 0.4934-0.85497 0.73988-1.2652 1.1264-1.846 2.5476-2.5167 1.4213-0.67071 3.1437-0.64846 1.7224 0.02226 2.7027 1.482 1.0148 1.4602 0.98181 4.0093-5e-3 0.37893-0.1887 1.2724-0.14937 0.89387-0.40653 2.1309t-0.59256 3.1966q-0.30096 1.96-0.56213 3.507-0.26116 1.547-0.45299 3.0605-0.15737 1.5139-0.17384 2.7885-0.0276 2.1358 0.47132 3.5204 0.53336 1.385 1.6702 1.3997 0.41338 0.0053 1.1752-0.2949 1.1421-0.39869 1.4562-0.70472 1.5308-1.1516 1.5993-1.1163 0.1029 0.03578 2.3258-1.3481 2.7786-1.7212 6.6352-4.221l-0.13415 7.7159-1.7393 1.2868q-0.20891 0.16957-3.2613 1.7495-4.4052 2.2859-5.5137 2.754-2.7025 1.171-3.3593 1.3348-1.7295 0.52891-3.6242 0.50443-1.8946-0.0245-3.1685-2.7628-1.239-2.7723-1.1709-8.0429 0.0267-2.0669 0.333-4.4402 0.30675-2.4078 0.75573-5.1583l-0.55117-0.0071-9.2568 17.796q-0.7421 1.4375-1.5751 1.9091-0.86788 0.5056-2.0047 0.49091-1.4124-0.0182-2.266-0.615-0.85319-0.63119-1.3226-1.6364-0.43447-1.0392-0.59024-2.316-0.12088-1.3108-0.10307-2.6887z" fill="#3c5094"/>
 <path id="path1047" d="m180.02 73.787q-1.8456 1.726-3.0163 4.0004-1.148 2.2312-1.4228 5.4182-0.2419 3.1767-0.20201 5.4005 0.0399 2.2238 0.54975 3.8692 0.20394 0.65814 0.53952 1.2755 0.36847 0.60716 0.92652 1.0113 0.55804 0.40415 1.384 0.50889t1.9777-0.25216q0.59233-0.18355 1.06-0.65306 0.50056-0.47971 0.88431-1.1036 0.37356-0.65676 0.65072-1.3919 0.29986-0.7782 0.4908-1.5587 0.45234-1.7993 0.61777-3.9424-0.24148-0.43011-0.61321-1.3969-0.38192-0.99973-1.047-3.0298-0.67533-2.063-1.1161-3.3691t-0.8102-2.3818q-0.33651-1.0859-0.58356-1.7668-0.24704-0.68086-0.26975-0.63775zm28.86 13.058q-1.7756 2.5339-3.6077 4.6525-0.77076 0.88805-1.6402 1.8067-0.87968 0.88573-1.757 1.6625-0.88756 0.7439-1.783 1.346-0.87274 0.55898-1.6954 0.8139-0.4607 0.14276-1.4433 0.23084-0.94967 0.07788-2.2192-0.17795-1.2468-0.29893-2.6896-1.1142-1.4099-0.82545-2.7911-2.4893-0.85047 1.562-1.8961 3.0762-1.0229 1.4711-2.259 2.7198-1.2032 1.2384-2.564 2.2011-1.3381 0.91957-2.8518 1.3886-2.139 0.66281-4.004 0.23087-1.8322-0.44214-3.3543-1.6296-1.4994-1.2305-2.6275-3.0089-1.0952-1.7886-1.7377-3.8617-0.65261-2.1061-0.78891-4.4082-0.11359-2.3452 0.28451-4.6687 0.42081-2.3666 0.98808-4.9588 0.60018-2.6025 2.1125-5.0548 1.5452-2.4625 3.4645-4.0671t4.3488-2.6099q-1.2065-4.2427-1.5681-7.7374t-0.4279-7.5497q-0.0663-4.055 0.40266-7.6628 0.5019-3.618 1.5322-6.4619 1.0303-2.844 2.607-4.7392 1.5666-1.9281 3.6726-2.5807 1.5466-0.47926 2.8875 0.0069 1.3307 0.45327 2.4069 1.5985 1.0989 1.1022 1.9457 2.7874 0.83662 1.6523 1.4178 3.528 0.3569 1.1518 0.63547 2.3999 1.01 4.7725 1.1431 9.2757 0.12288 4.4703-0.2103 8.8655-0.33318 4.3952-0.95002 8.8062-0.93892 6.747-1.0432 9.0876-0.0218 0.51169 0.0176 1.2208 0.0394 0.70913 0.1196 1.5499 0.1029 0.79766 0.25911 1.6509 0.14601 0.82036 0.38054 1.5772 0.29572 0.95431 0.65957 1.7793 0.39675 0.8148 0.87415 1.4243 0.4672 0.57657 1.0174 0.83889 0.58306 0.25213 1.2412 0.04819 0.62524-0.19375 1.2778-0.64843 0.67529-0.49779 1.3654-1.1805 0.69011-0.68272 1.3496-1.4642 0.68224-0.82455 1.2987-1.6287 1.402-1.8771 2.8564-4.1672zm-20.277-40.063q-0.51636-2.3647-0.93444-3.7139-0.55064-1.777-1.0939-2.3661-0.5103-0.59928-1.1026-0.41573-1.053 0.32631-1.4905 1.9406-0.4477 1.5814-0.46343 3.8585-0.0157 2.2771 0.26565 4.931 0.28137 2.6539 0.67629 5.0923 0.39493 2.4384 0.77872 4.3753t0.56271 2.7471q0.36803 1.6532 0.73837 3.1976 0.39306 1.5012 0.74764 2.7619 0.34439 1.2278 0.62991 2.1492t0.43847 1.415l0.10198 0.32907q0.55008-4.8592 0.8142-9.5937 0.0973-2.0138 0.14362-4.1922 0.069-2.2215 6e-3 -4.4022-0.0626-2.1807-0.26935-4.2446-0.17383-2.0741-0.54974-3.8692z" fill="#3c5094"/>
 <path id="path1049" d="m219.71 84.888q-2.7487 1.7123-5.4442 2.0114-2.6662 0.2809-5.0789-0.52972-2.4308-0.83986-4.4988-2.5958-2.0569-1.8034-3.5688-4.2304-1.0201-1.6375-1.8086-4.2716-0.80676-2.6634-1.2564-4.8186-0.4204-2.1734-0.40984-4.3718-8e-3 -2.2276 0.56135-4.2462 0.58004-2.0661 1.7804-3.7879 1.2114-1.7693 3.229-3.0262 1.6375-1.0201 3.369-1.3681 1.7315-0.34801 3.356-0.0206 1.6356 0.27996 3.0583 1.2607 1.4228 0.98079 2.461 2.6475 1.1294 1.813 1.3331 4.8114 0.23296 2.9802-0.34421 5.5721-0.57716 2.5919-1.987 5.2155-1.3806 2.6053-3.4874 4.8919 0.93044 0.51628 1.6677 0.7876 0.76651 0.25311 1.3873 0.27228 0.62078 0.01918 1.1615-0.15531 0.56996-0.1927 1.1256-0.5388 1.7545-1.0929 3.2472-2.997 1.522-1.9222 2.7084-4.1225t2.0589-4.4485q0.85424-2.2775 1.3024-4.099l6.213 1.5685q-0.9156 4.2639-2.5354 8.1142-0.71091 1.6605-1.6447 3.4193-0.90457 1.7406-2.0939 3.415-1.1783 1.627-2.6485 3.1111-1.4592 1.4367-3.2137 2.5296zm-12.45-11.321q1.0527-0.65577 1.9529-1.9472 0.91127-1.3389 1.4357-2.8426 0.55368-1.522 0.68455-3.5924t-0.45203-3.0061q-0.81971-1.3159-1.8451-1.8542-0.99612-0.55655-1.6979-0.11937-1.2574 0.78328-1.8724 1.8158-0.58579 1.0143-0.72625 2.1571-0.12943 1.0953 0.0916 2.2971 0.23201 1.1543 0.60926 2.8676 0.4065 1.695 0.9127 2.6379 0.50621 0.94291 0.90696 1.5862z" fill="#3c5094"/>
 <path id="path1051" d="m228.47 69.796q-0.89619-1.2225-1.9386-2.9359-1.0628-1.7412-2.1644-3.7101-1.0738-1.9893-2.1329-4.075-1.0516-2.1338-2.0994-4.6121-1.0682-2.5061-1.7458-4.1879-0.67756-1.6818-0.98849-2.8635-0.22581-0.77422-0.26831-1.2984-0.0425-0.52415 0.0928-0.92233 0.1427-0.44633 0.51874-0.80742 0.38346-0.40924 1.0225-0.8777 0.72241-0.52957 1.1725-0.73136 0.45751-0.24995 0.85569-0.11467 0.37781 0.10749 0.77221 0.58726 0.4222 0.4594 1.0536 1.3207 0.75361 1.0281 1.9997 3.0193 1.2461 1.9912 2.3404 3.3675l0.30564-0.22405q-0.25902-1.5188-0.74937-3.9358-0.49036-2.4171-0.44927-4.284 0.0411-1.8669 0.6174-3.5281 0.55594-1.689 2.0841-2.8092 0.52792-0.38699 1.1706-0.55912 0.62234-0.19991 1.228-0.13127 0.63341 0.04827 1.2223 0.38546 0.56854 0.3094 1.0166 0.92068 0.34626 0.47235 0.83873 1.4355 0.47212 0.9354 1.1645 2.5209 0.69238 1.5855 1.2052 2.5765 0.49248 0.96318 0.92021 1.5467 0.73324 1.0003 1.4166 1.5245 0.68332 0.52427 1.2945 0.717 0.61857 0.14458 1.1298 0.02614 0.53899-0.13881 0.98355-0.46469 1.2503-0.91656 2.1767-2.4499 0.92634-1.5334 1.5286-3.0427 0.71523-1.7631 1.212-3.7077l4.3493 6.8073q-0.37616 1.0019-0.86534 2.2575-0.48919 1.2556-1.158 2.5575-0.66143 1.2537-1.5358 2.45-0.86699 1.1481-2.034 2.0036-2.0839 1.5276-3.973 1.631-1.9095 0.07558-3.6578-0.73596-1.7686-0.83933-3.3722-2.2694-1.624-1.4579-3.1295-3.0454l-0.44456 0.32589 5.19 17.511q0.40536 1.3688 0.57371 2.356 0.17578 0.93904 0.14046 1.6484-0.0353 0.70935-0.30953 1.2094-0.29457 0.47223-0.7947 0.83885-1.1392 0.83508-2.1801 0.87193-1.0612 0.0091-2.0409-0.51156-0.97224-0.56877-1.8648-1.495-0.88512-0.97437-1.6998-2.0858z" fill="#3c5094"/>
 <path id="path1024" d="m61.54 27.889q-3.6997 2.8023-6.1317 3.9441-2.432 1.1418-3.4391 0.69325-1.3847-0.61679 0.03113-3.7953 1.3738-3.0841 3.3483-5.1462t4.4206-3.2355q2.4286-1.2188 5.1888-1.5733 2.8057-0.37196 5.7647-0.07219 3.0045 0.28232 6.082 1.1629 3.0775 0.88054 6.1301 2.2403 3.5561 1.584 6.9054 3.7171 3.3633 2.1016 6.2471 4.5175 2.8838 2.416 5.1448 5.0448 2.275 2.5974 3.6546 5.173 1.425 2.5582 1.7798 4.9791 0.38626 2.4349-0.5249 4.4805-1.0794 2.4232-3.2007 4.3068-2.0898 1.8977-5.2108 2.8081-3.0754 0.89293-7.1468 0.55026-4.0399-0.32865-8.9913-2.421 3.1155 1.3878 4.9958 3.4321 1.8942 2.0129 2.7108 4.4132 0.83054 2.3688 0.56595 5.0795-0.25057 2.6792-1.3299 5.1024-0.88313 1.9826-2.3293 3.7899-1.4462 1.8073-3.3572 3.2188-1.911 1.4116-4.259 2.3646-2.3339 0.92153-5.052 1.1816-2.6867 0.27412-5.7015-0.23908-3.0288-0.48173-6.2703-1.9256-2.0456-0.91116-4.1852-2.2037-2.1537-1.261-4.2722-2.7704-2.1011-1.4639-4.0551-3.0886-1.954-1.6247-3.6142-3.2316-0.78304-0.61279-1.2791-1.3618-0.46462-0.73496 0.04002-1.8679 2.327-5.224 5.0178-10.588 2.7223-5.3496 5.9236-10.335 3.2153-5.0169 6.3662-8.3654 3.1509-3.3484 7.3682-5.9579 2.9213-0.54676 4.7465 0.26628 2.2973 1.0233 2.6899 4.2907-2.3167 1.3063-4.4206 3.2355-2.0724 1.9432-3.4344 3.5616-1.362 1.6184-3.0222 4.1601-1.6287 2.5557-3.0439 5.0555-0.81619 1.409-1.7551 3.1782-0.89343 1.7517-1.7588 3.4405-0.8654 1.6888-1.6993 3.3916-0.78844 1.6854-1.4893 3.2589-0.11214 0.25176-0.30839 0.69234-0.19625 0.44058-0.34358 0.94067-0.11586 0.5141-0.17221 0.97929-0.04233 0.43371 0.12532 0.73468 1.6393 1.4845 3.646 2.9063 2.0067 1.4218 4.2096 2.4031 2.675 1.1915 5.4729 1.6836 2.812 0.46056 5.3799-0.05501 2.582-0.54704 4.7136-2.1998 2.1771-1.6702 3.691-5.069 0.81303-1.8253 0.65337-3.3295-0.14564-1.5357-0.9141-2.8586-0.73699-1.3088-1.9743-2.4257-1.1919-1.1343-2.5342-2.1848-1.2969-1.068-2.5763-2.0904-1.2479-1.0084-2.1285-2.0796-0.83511-1.0886-1.149-2.2466-0.29984-1.1896 0.31694-2.5742 0.29438-0.66087 0.56759-1.1049 0.3187-0.46147 0.74211-0.65001 0.45488-0.17452 1.0914-0.07955 0.66802 0.10899 1.6751 0.55756 1.3532 0.60277 2.3986 1.2193 1.0909 0.59906 2.3811 1.1738 3.0211 1.3457 5.7667 1.7013 2.7911 0.33811 5.0512-0.16372 2.2916-0.48782 3.9472-1.7492 1.7011-1.2788 2.5562-3.1985 0.56072-1.2588 0.2995-2.6197-0.24721-1.3924-1.2045-2.7994-0.91179-1.4244-2.3938-2.8388-1.482-1.4144-3.3768-2.7487-1.8808-1.3658-4.094-2.5779-2.1992-1.2436-4.5594-2.2949-3.8079-1.6962-6.0285-2.3836-3.0354-0.97495-5.8614-1.404-2.7805-0.44654-5.2083-0.24567-2.3963 0.21489-4.0061 1.1195z" fill="#406aa7"/>
 <path id="path1026" d="m97.337 91.881q-1.769-0.57594-2.8073-2.6169-0.99494-2.063-1.2882-5.057-0.26054-2.9833 0.20419-6.6362 0.50814-3.675 1.7454-7.475 0.94924-2.9155 2.4843-6.1837 1.5458-3.301 3.5486-6.6705 2.0028-3.3695 4.3112-6.6759 2.3411-3.2956 4.8483-6.2111 2.5399-2.9048 5.1598-5.2764 2.6306-2.4043 5.169-3.9691 2.5491-1.5975 4.9526-2.1918 2.4036-0.59422 4.4673 0.07772 1.4086 0.45862 2.1125 1.4124 0.71458 0.92105 0.89742 2.14 0.18283 1.2189-0.0579 2.626-0.19731 1.385-0.64527 2.7608-1.0026 3.0793-2.7685 6.055-1.7225 2.9536-3.9904 5.802-2.2245 2.8264-4.8528 5.5575t-5.377 5.3868q-2.738 2.623-5.4874 5.1697-2.706 2.5247-5.1728 4.9823-0.27044 0.27426-0.63764 0.7344-0.33445 0.47081-0.70089 1.0399-0.35577 0.53632-0.74354 1.1709t-0.69936 1.2578l-0.14932 0.45862q-0.2773 0.85172-0.38015 1.724-0.0594 0.8502-0.0107 1.5907 0.0594 0.70774 0.22626 1.1968 0.1775 0.45633 0.43957 0.54166 0.62241 0.20265 1.4939 0.19656 0.90428 0.0046 1.9274-0.13331 1.0666-0.15998 2.1979-0.40757 1.142-0.28035 2.2184-0.58203 2.5117-0.70392 5.3587-1.7697l0.44641 7.7538q-3.5981 1.1473-6.9814 1.8573-1.4688 0.28263-3.0359 0.53327-1.5236 0.22854-3.0374 0.31539-1.5138 0.08684-2.898-0.0015-1.3736-0.12113-2.4874-0.48376zm8.5653-26.196q2.3274-2.1407 5.0319-4.8833 2.7372-2.7319 5.3419-5.7243 2.6047-2.9924 4.8056-6.0801 2.2116-3.1204 3.477-6.0054 0.3093-0.94999 0.4571-1.6265 0.19122-0.69859-0.0709-0.78392-0.94999-0.3093-2.4691 0.57288-1.4757 0.8601-3.272 2.594-1.7636 1.7446-3.6857 4.1984-1.8893 2.4645-3.6994 5.3533-1.8101 2.8888-3.3566 6.0809-1.5358 3.1593-2.5598 6.3041z" fill="#406aa7"/>
 <path id="path1028" d="m120.71 97.936q-3.1674-0.67426-5.316-2.3292-2.1148-1.6478-3.2897-3.9056-1.1677-2.2915-1.4384-4.9908-0.22986-2.7259 0.36549-5.5226 0.40169-1.887 1.6616-4.3309 1.2671-2.4777 2.4388-4.3416 1.2054-1.8568 2.7384-3.4325 1.5402-1.6094 3.3506-2.6681 1.8513-1.0853 3.9104-1.4923 2.1-0.43354 4.425 0.06139 1.887 0.40168 3.3753 1.3525t2.4309 2.3138q0.98352 1.3365 1.3275 3.03 0.34396 1.6935-0.0649 3.6141-0.44472 2.0891-2.3786 4.3896-1.9002 2.3077-4.1142 3.7736-2.2141 1.4659-5.0497 2.3769-2.8019 0.91813-5.9056 1.1028 0.31177 1.0174 0.6544 1.7243 0.37633 0.71412 0.81004 1.1587t0.94415 0.6941q0.54414 0.25672 1.1844 0.39301 2.0218 0.43038 4.4178 0.09509 2.4298-0.32812 4.8108-1.0893 2.3811-0.76116 4.5693-1.7747 2.1954-1.0472 3.7821-2.0479l3.3856 5.4406q-3.618 2.4351-7.456 4.0837-1.6641 0.70244-3.5569 1.321-1.8591 0.62571-3.8774 1.0062-1.9774 0.35397-4.0659 0.40251-2.0476 0.02202-4.0694-0.40836zm-1.1103-16.791q1.2131 0.25823 2.7574-0.04704 1.5852-0.33179 3.0063-1.0507 1.4548-0.71178 2.9856-2.1118t1.7604-2.4783q0.32278-1.5163-0.042-2.6154-0.33112-1.092-1.1398-1.2641-1.4489-0.30844-2.6083 0.0083-1.1256 0.32395-2.0198 1.0494-0.85324 0.69894-1.528 1.7177-0.63388 0.9922-1.551 2.4877-0.88343 1.5026-1.1732 2.5329-0.28975 1.0302-0.44755 1.7715z" fill="#406aa7"/>
 <path id="path1030" d="m136.58 93.709q0.0294-2.2736 0.34324-5.2325 0.31431-2.9934 0.77353-6.5362 0.45967-3.5773 1.0133-6.4298 0.55367-2.8525 1.0622-4.8787 0.3994-1.5797 1.4811-2.6338 1.1161-1.0536 2.9763-1.0296 1.8602 0.02403 2.5689 1.1702 0.70872 1.1461 0.68424 3.0408-7e-3 0.51672-0.12159 1.411-0.11447 0.85987-0.30051 1.9255-0.15115 1.0317-0.33808 2.1662-0.18648 1.1001-0.37741 2.5447-0.15605 1.4106-0.26874 2.1327-0.11224 0.68763-0.11536 0.92876l0.68896 0.0089q0.21159-0.37626 0.6701-1.1972 0.45895-0.85542 1.065-2.4325t1.2762-2.7743q0.70499-1.2312 1.3048-2.326 0.60031-1.1292 1.0937-1.9842 0.4934-0.85497 0.73988-1.2652 1.1264-1.846 2.5476-2.5167 1.4213-0.67071 3.1437-0.64846 1.7224 0.02226 2.7027 1.482 1.0148 1.4602 0.98181 4.0093-5e-3 0.37893-0.1887 1.2724-0.14937 0.89387-0.40653 2.1309t-0.59256 3.1966q-0.30096 1.96-0.56213 3.507-0.26116 1.547-0.45299 3.0605-0.15737 1.5139-0.17384 2.7885-0.0276 2.1358 0.47132 3.5204 0.53336 1.385 1.6702 1.3997 0.41338 0.0053 1.1752-0.2949 1.1421-0.39869 1.4562-0.70472 1.5308-1.1516 1.5993-1.1163 0.1029 0.03578 2.3258-1.3481 2.7786-1.7212 6.6352-4.221l-0.13415 7.7159-1.7393 1.2868q-0.20891 0.16957-3.2613 1.7495-4.4052 2.2859-5.5137 2.754-2.7025 1.171-3.3593 1.3347-1.7295 0.52892-3.6242 0.50444-1.8946-0.0245-3.1685-2.7628-1.239-2.7723-1.1709-8.0429 0.0267-2.0669 0.333-4.4402 0.30675-2.4078 0.75573-5.1583l-0.55117-0.0071-9.2568 17.796q-0.7421 1.4375-1.5751 1.9091-0.86788 0.50559-2.0047 0.4909-1.4124-0.0182-2.266-0.61499-0.85319-0.6312-1.3226-1.6364-0.43447-1.0392-0.59024-2.316-0.12088-1.3108-0.10307-2.6887z" fill="#406aa7"/>
 <path id="path1032" d="m177.95 69.225q-1.8456 1.726-3.0163 4.0004-1.148 2.2312-1.4228 5.4182-0.24189 3.1767-0.20201 5.4005 0.0399 2.2238 0.54975 3.8692 0.20394 0.65814 0.53952 1.2755 0.36847 0.60716 0.92652 1.0113 0.55805 0.40415 1.384 0.50889t1.9777-0.25216q0.59233-0.18355 1.06-0.65306 0.50056-0.47971 0.88431-1.1036 0.37356-0.65676 0.65072-1.3919 0.29986-0.7782 0.49081-1.5587 0.45233-1.7993 0.61777-3.9424-0.24148-0.43011-0.61321-1.3969-0.38193-0.99973-1.0471-3.0298-0.67533-2.063-1.1161-3.3691-0.44078-1.3061-0.8102-2.3818-0.33651-1.0859-0.58356-1.7668-0.24704-0.68086-0.26975-0.63775zm28.86 13.058q-1.7756 2.5339-3.6077 4.6525-0.77076 0.88805-1.6402 1.8067-0.87968 0.88573-1.757 1.6625-0.88757 0.7439-1.783 1.346-0.87274 0.55898-1.6954 0.8139-0.4607 0.14276-1.4433 0.23084-0.94967 0.07788-2.2192-0.17795-1.2468-0.29893-2.6896-1.1142-1.4099-0.82545-2.7911-2.4893-0.85047 1.562-1.8961 3.0762-1.0229 1.4711-2.259 2.7198-1.2032 1.2384-2.564 2.2011-1.3381 0.91957-2.8518 1.3886-2.139 0.66281-4.004 0.23087-1.8322-0.44214-3.3543-1.6296-1.4994-1.2305-2.6275-3.0089-1.0952-1.7886-1.7377-3.8617-0.65261-2.1061-0.78891-4.4082-0.11359-2.3452 0.28451-4.6687 0.42081-2.3666 0.98808-4.9588 0.60018-2.6025 2.1125-5.0548 1.5452-2.4625 3.4645-4.0671t4.3488-2.6099q-1.2065-4.2427-1.5681-7.7374-0.36157-3.4947-0.42789-7.5497-0.0663-4.055 0.40266-7.6628 0.5019-3.618 1.5322-6.4619t2.607-4.7392q1.5666-1.9281 3.6726-2.5807 1.5466-0.47926 2.8875 0.0069 1.3307 0.45327 2.4069 1.5985 1.0989 1.1022 1.9457 2.7874 0.83662 1.6523 1.4178 3.528 0.3569 1.1518 0.63547 2.3999 1.01 4.7725 1.1431 9.2757 0.12288 4.4703-0.2103 8.8655-0.33318 4.3952-0.95002 8.8062-0.93892 6.747-1.0432 9.0876-0.0218 0.51169 0.0176 1.2208 0.0394 0.70913 0.1196 1.5499 0.1029 0.79766 0.25911 1.6509 0.14601 0.82036 0.38054 1.5772 0.29572 0.95431 0.65957 1.7793 0.39675 0.8148 0.87415 1.4243 0.4672 0.57657 1.0174 0.83889 0.58306 0.25213 1.2412 0.04819 0.62524-0.19375 1.2778-0.64843 0.67529-0.49779 1.3654-1.1805 0.69011-0.68272 1.3496-1.4642 0.68224-0.82455 1.2987-1.6287 1.402-1.8771 2.8564-4.1672zm-20.277-40.063q-0.51636-2.3647-0.93444-3.7139-0.55063-1.777-1.0939-2.3661-0.5103-0.59928-1.1026-0.41573-1.053 0.32631-1.4905 1.9406-0.4477 1.5814-0.46343 3.8585-0.0157 2.2771 0.26565 4.931 0.28137 2.6539 0.67629 5.0923 0.39493 2.4384 0.77872 4.3753t0.56271 2.7471q0.36803 1.6532 0.73837 3.1976 0.39306 1.5012 0.74764 2.7619 0.34439 1.2278 0.62991 2.1492t0.43847 1.415l0.10198 0.32907q0.55008-4.8592 0.8142-9.5937 0.0973-2.0138 0.14362-4.1922 0.069-2.2215 6e-3 -4.4022-0.0626-2.1807-0.26935-4.2446-0.17383-2.0741-0.54974-3.8692z" fill="#406aa7"/>
 <path id="path1034" d="m217.63 80.326q-2.7487 1.7123-5.4442 2.0114-2.6662 0.2809-5.0789-0.52972-2.4308-0.83986-4.4988-2.5958-2.0569-1.8034-3.5688-4.2304-1.0201-1.6375-1.8086-4.2716-0.80676-2.6634-1.2564-4.8186-0.4204-2.1734-0.40984-4.3718-8e-3 -2.2276 0.56135-4.2462 0.58004-2.0661 1.7804-3.7879 1.2114-1.7693 3.229-3.0262 1.6375-1.0201 3.369-1.3681 1.7315-0.34801 3.356-0.0206 1.6356 0.27996 3.0583 1.2607 1.4228 0.98079 2.461 2.6475 1.1294 1.813 1.3331 4.8114 0.23296 2.9802-0.34421 5.5721-0.57716 2.5919-1.987 5.2155-1.3806 2.6053-3.4874 4.8919 0.93044 0.51628 1.6677 0.7876 0.76651 0.25311 1.3873 0.27228 0.62078 0.01918 1.1615-0.15531 0.56996-0.1927 1.1256-0.5388 1.7545-1.0929 3.2472-2.997 1.522-1.9222 2.7084-4.1225t2.0589-4.4485q0.85424-2.2775 1.3025-4.099l6.213 1.5685q-0.91559 4.2639-2.5354 8.1142-0.71091 1.6605-1.6447 3.4193-0.90457 1.7406-2.0939 3.415-1.1783 1.627-2.6485 3.1111-1.4592 1.4367-3.2137 2.5296zm-12.45-11.321q1.0527-0.65577 1.9529-1.9472 0.91127-1.3389 1.4357-2.8426 0.55368-1.522 0.68455-3.5924t-0.45203-3.0061q-0.81971-1.3159-1.8451-1.8542-0.99612-0.55655-1.6979-0.11937-1.2574 0.78328-1.8724 1.8158-0.58579 1.0143-0.72625 2.1571-0.12943 1.0953 0.0916 2.2971 0.23201 1.1543 0.60926 2.8676 0.4065 1.695 0.9127 2.6379 0.50621 0.94291 0.90696 1.5862z" fill="#406aa7"/>
 <path id="path1036" d="m226.4 65.235q-0.89618-1.2225-1.9386-2.9359-1.0628-1.7412-2.1644-3.7101-1.0738-1.9893-2.1329-4.075-1.0516-2.1338-2.0994-4.6121-1.0682-2.5061-1.7458-4.1879-0.67756-1.6818-0.98849-2.8635-0.22581-0.77422-0.26832-1.2984-0.0425-0.52415 0.0928-0.92233 0.14269-0.44633 0.51874-0.80742 0.38346-0.40924 1.0225-0.8777 0.72241-0.52957 1.1725-0.73136 0.45752-0.24995 0.85569-0.11467 0.37781 0.10749 0.77221 0.58726 0.4222 0.4594 1.0536 1.3207 0.75361 1.0281 1.9997 3.0193 1.2461 1.9912 2.3404 3.3675l0.30564-0.22405q-0.25902-1.5188-0.74937-3.9358-0.49036-2.4171-0.44927-4.284 0.0411-1.8669 0.6174-3.5281 0.55594-1.689 2.0841-2.8092 0.52792-0.38699 1.1706-0.55912 0.62234-0.19991 1.228-0.13127 0.63341 0.04827 1.2223 0.38546 0.56854 0.3094 1.0166 0.92068 0.34626 0.47235 0.83873 1.4355 0.47212 0.9354 1.1645 2.5209 0.69238 1.5855 1.2052 2.5765 0.49248 0.96318 0.92021 1.5467 0.73324 1.0003 1.4166 1.5245 0.68332 0.52427 1.2945 0.717 0.61857 0.14458 1.1298 0.02614 0.53899-0.13881 0.98355-0.46469 1.2503-0.91656 2.1767-2.4499 0.92634-1.5334 1.5286-3.0427 0.71523-1.7631 1.212-3.7077l4.3493 6.8073q-0.37616 1.0019-0.86534 2.2575-0.48919 1.2556-1.158 2.5575-0.66143 1.2537-1.5358 2.45-0.86699 1.1481-2.034 2.0036-2.0839 1.5276-3.973 1.631-1.9095 0.07558-3.6578-0.73596-1.7686-0.83933-3.3722-2.2694-1.624-1.4579-3.1295-3.0454l-0.44456 0.32589 5.19 17.511q0.40536 1.3688 0.57371 2.356 0.17578 0.93904 0.14046 1.6484-0.0353 0.70935-0.30953 1.2094-0.29457 0.47223-0.7947 0.83885-1.1392 0.83508-2.1801 0.87193-1.0612 0.0091-2.0409-0.51156-0.97224-0.56877-1.8648-1.495-0.88512-0.97437-1.6998-2.0858z" fill="#406aa7"/>
 <path id="path1108" d="m76.974 96.673 5.3399 1.6465-4.4156 14.321 11.212-12.225 5.3399 1.6465-10.206 10.515-0.17436 23.496-5.5826-1.7213 0.15534-16.538-3.4681 3.6619-3.3379 10.825-5.3399-1.6465z" fill="#c63d48"/>
 <path id="path1110" d="m96.666 102.63 14.798 3.6417-1.2139 4.9328-9.3724-2.3064-2.2457 9.1257 7.4486 1.833-1.2139 4.9328-7.4486-1.833-2.6099 10.606 9.3724 2.3064-1.2139 4.9328-14.798-3.6417z" fill="#c63d48"/>
 <path id="path1112" d="m115.3 127.77-3.1829-21.273 5.8569 1.0114 1.5329 13.514 0.10012 0.0173 5.976-12.217 5.3563 0.92492-10.133 18.974-2.576 14.918-5.5065-0.95086z" fill="#c63d48"/>
 <path id="path1114" d="m131.19 109.98 7.9606 0.4886 1.9901 25.621 0.10141 6e-3 5.1085-25.185 7.9606 0.48861-2.1785 35.493-5.2733-0.32366 1.6494-26.873-0.10141-6e-3 -5.7058 26.624-4.6648-0.28632-2.4069-27.122-0.10141-6e-3 -1.6494 26.873-4.8676-0.29877z" fill="#c63d48"/>
 <path id="path1116" d="m159.32 110.9 7.5449-0.60564 8.6179 34.983-5.5701 0.44712-1.5777-6.9573 8e-3 0.10128-6.3296 0.50808-0.45588 7.0186-5.165 0.4146zm7.9787 23.21-3.8876-17.321-0.10128 8e-3 -1.0242 17.716z" fill="#c63d48"/>
 <path id="path1118" d="m171.75 109.88 8.0213-1.8399q4.0602-0.93128 6.59 0.7817 2.5298 1.713 3.4952 5.9217l0.78364 3.4165q0.96536 4.2087-0.56501 6.853t-5.5905 3.5756l-2.5747 0.59057 3.2368 14.112-5.4466 1.2493zm11.599 13.757q1.3369-0.30664 1.8102-1.197 0.52285-0.90172 0.11399-2.6842l-0.94264-4.1097q-0.40886-1.7825-1.2724-2.3662-0.81404-0.59507-2.1509-0.28843l-2.5747 0.59057 2.4418 10.646z" fill="#c63d48"/>
 <path id="path1120" d="m200.42 106.46-5.2899 2.4792-2.1558-4.5999 15.64-7.3297 2.1558 4.5999-5.2899 2.4792 12.935 27.599-5.0599 2.3714z" fill="#c63d48"/>
 <path id="path1122" d="m208.79 96.735 7.059-4.3285q3.6811-2.2572 6.4322-1.5606 2.7246 0.6533 4.9022 4.2044l1.1419 1.8622q2.8945 4.7204 0.54657 7.8883l0.0531 0.0866q2.0509-0.54254 3.7264 0.63492 1.7188 1.1509 3.3652 3.8359l3.2663 5.3267q0.79666 1.2992 1.3878 2.0689 0.56461 0.7264 1.3891 1.2935l-4.8503 2.9742q-0.71128-0.57688-1.1962-1.1734-0.48494-0.59649-1.5206-2.2854l-3.3991-5.5432q-1.2747-2.0787-2.4721-2.4766-1.1542-0.4245-2.7998 0.58461l-1.6456 1.0091 7.9666 12.992-4.7637 2.9211zm14.463 9.0087q1.4291-0.87633 1.6706-2.0374 0.28477-1.1876-0.77744-2.9199l-1.434-2.3385q-1.0091-1.6456-2.0668-2.0101-1.0144-0.39099-2.2703 0.37911l-2.1653 1.3278 5.3111 8.6613z" fill="#c63d48"/>
 <path id="path1124" d="m229.65 83.321 6.2752-4.2326 24.686 26.242-4.6327 3.1248-4.7909-5.2859 0.0568 0.0842-5.2644 3.5509 3.0494 6.3379-4.2957 2.8975zm18.348 16.301-11.892-13.18-0.0842 0.05681 7.8073 15.935z" fill="#c63d48"/>
 <path id="path1126" d="m245.45 72.776 4.7508-2.9421 18.723 30.232-4.7508 2.9421z" fill="#c63d48"/>
 <path id="path1128" d="m259.48 64.234 6.4259-2.8024 13.491 17.338 0.0931-0.04061-8.5086-19.511 4.5633-1.9901 14.215 32.595-5.2618 2.2947-16.523-21.114-0.0931 0.04061 10.377 23.795-4.5633 1.9901z" fill="#c63d48"/>
 <path id="path1130" d="m291.28 52.958 15.136-1.7798 0.59326 5.0452-9.586 1.1272 1.0975 9.3337 7.6183-0.89582 0.59326 5.0452-7.6183 0.89582 1.2755 10.847 9.586-1.1272 0.59326 5.0452-15.136 1.7798z" fill="#c63d48"/>
 <path id="path1132" d="m321.7 51.8 8.152 1.4528q4.251 0.75757 5.845 3.1056 1.6029 2.2981 0.87205 6.399l-0.38324 2.1505q-0.97148 5.4513-4.8308 6.26l-0.0178 0.10002q1.8935 0.95665 2.364 2.9497 0.52044 2.002-0.0321 5.1027l-1.0962 6.1515q-0.26738 1.5004-0.3367 2.4684-0.0604 0.91804 0.17927 1.8896l-5.6014-0.99821q-0.14856-0.90368-0.11489-1.6717 0.0337-0.76801 0.38125-2.7185l1.1408-6.4015q0.42781-2.4006-0.20305-3.4934-0.58084-1.0839-2.4813-1.4226l-1.9005-0.33868-2.6738 15.004-5.5013-0.98038zm4.828 16.341q1.6504 0.29412 2.6021-0.41349 1.0017-0.69869 1.3582-2.6992l0.48128-2.7007q0.33868-1.9005-0.20997-2.8754-0.49865-0.96607-1.949-1.2245l-2.5006-0.44563-1.7825 10.002z" fill="#c63d48"/>
 <path id="path1081" d="m75.974 94.814 5.3399 1.6465-4.4156 14.321 11.212-12.225 5.3399 1.6465-10.206 10.515-0.17436 23.496-5.5826-1.7213 0.15534-16.538-3.4681 3.6619-3.3379 10.825-5.3399-1.6465z" fill="#c55852"/>
 <path id="path1083" d="m95.666 100.77 14.798 3.6417-1.2139 4.9328-9.3724-2.3064-2.2457 9.1257 7.4486 1.833-1.2139 4.9328-7.4486-1.833-2.6099 10.606 9.3724 2.3064-1.2139 4.9328-14.799-3.6417z" fill="#c55852"/>
 <path id="path1085" d="m114.3 125.91-3.1829-21.273 5.8569 1.0114 1.5329 13.514 0.10012 0.0173 5.976-12.217 5.3563 0.92493-10.133 18.974-2.576 14.918-5.5065-0.95086z" fill="#c55852"/>
 <path id="path1087" d="m130.18 108.12 7.9606 0.48861 1.9901 25.621 0.1014 6e-3 5.1085-25.185 7.9606 0.4886-2.1785 35.493-5.2733-0.32366 1.6494-26.873-0.10141-6e-3 -5.7058 26.624-4.6648-0.28632-2.4069-27.122-0.1014-6e-3 -1.6494 26.873-4.8676-0.29877z" fill="#c55852"/>
 <path id="path1089" d="m158.32 109.04 7.5449-0.60563 8.6179 34.983-5.5701 0.44712-1.5777-6.9573 8e-3 0.10128-6.3296 0.50808-0.45588 7.0186-5.165 0.4146zm7.9787 23.21-3.8876-17.321-0.10128 8e-3 -1.0242 17.716z" fill="#c55852"/>
 <path id="path1091" d="m170.75 108.02 8.0213-1.8399q4.0602-0.93128 6.59 0.7817 2.5298 1.713 3.4952 5.9217l0.78364 3.4165q0.96536 4.2087-0.56501 6.853t-5.5905 3.5756l-2.5747 0.59057 3.2368 14.112-5.4466 1.2493zm11.599 13.757q1.3369-0.30664 1.8102-1.197 0.52285-0.90171 0.11399-2.6842l-0.94265-4.1097q-0.40886-1.7825-1.2724-2.3662-0.81404-0.59507-2.1509-0.28843l-2.5747 0.59057 2.4418 10.646z" fill="#c55852"/>
 <path id="path1093" d="m199.42 104.6-5.2899 2.4792-2.1558-4.5999 15.64-7.3297 2.1558 4.5999-5.2899 2.4792 12.935 27.599-5.0599 2.3714z" fill="#c55852"/>
 <path id="path1095" d="m207.79 94.877 7.059-4.3285q3.6811-2.2572 6.4322-1.5606 2.7246 0.6533 4.9022 4.2044l1.1419 1.8622q2.8945 4.7204 0.54657 7.8883l0.0531 0.0866q2.0509-0.54253 3.7264 0.63492 1.7188 1.1509 3.3652 3.8359l3.2663 5.3267q0.79666 1.2992 1.3878 2.0689 0.56461 0.7264 1.3891 1.2935l-4.8503 2.9742q-0.71128-0.57688-1.1962-1.1734-0.48494-0.59649-1.5206-2.2854l-3.3991-5.5432q-1.2747-2.0787-2.4721-2.4766-1.1542-0.42449-2.7998 0.58461l-1.6456 1.0091 7.9666 12.992-4.7637 2.9211zm14.463 9.0086q1.4291-0.87632 1.6706-2.0374 0.28477-1.1876-0.77744-2.9199l-1.434-2.3386q-1.0091-1.6456-2.0668-2.0101-1.0144-0.39099-2.2703 0.37911l-2.1653 1.3278 5.3111 8.6613z" fill="#c55852"/>
 <path id="path1097" d="m228.65 81.463 6.2752-4.2326 24.686 26.242-4.6327 3.1248-4.7909-5.2859 0.0568 0.0842-5.2644 3.5509 3.0494 6.3379-4.2957 2.8975zm18.348 16.301-11.892-13.18-0.0842 0.05681 7.8073 15.935z" fill="#c55852"/>
 <path id="path1099" d="m244.45 70.918 4.7508-2.9421 18.723 30.232-4.7508 2.9421z" fill="#c55852"/>
 <path id="path1101" d="m258.48 62.376 6.4259-2.8024 13.491 17.338 0.0931-0.04061-8.5086-19.511 4.5633-1.9901 14.215 32.595-5.2618 2.2947-16.523-21.114-0.0931 0.04061 10.377 23.795-4.5633 1.9901z" fill="#c55852"/>
 <path id="path1103" d="m290.28 51.099 15.136-1.7798 0.59326 5.0452-9.586 1.1272 1.0975 9.3337 7.6183-0.89582 0.59326 5.0452-7.6183 0.89582 1.2755 10.847 9.586-1.1272 0.59326 5.0452-15.136 1.7798z" fill="#c55852"/>
 <path id="path1105" d="m320.7 49.941 8.152 1.4528q4.251 0.75757 5.845 3.1056 1.6029 2.2981 0.87205 6.399l-0.38324 2.1505q-0.97148 5.4513-4.8308 6.26l-0.0178 0.10002q1.8935 0.95665 2.364 2.9497 0.52044 2.002-0.0321 5.1027l-1.0962 6.1515q-0.26738 1.5004-0.3367 2.4684-0.0604 0.91804 0.17927 1.8896l-5.6014-0.99821q-0.14856-0.90368-0.11489-1.6717 0.0337-0.76801 0.38125-2.7185l1.1408-6.4015q0.42781-2.4006-0.20305-3.4934-0.58084-1.0839-2.4813-1.4226l-1.9005-0.33868-2.6738 15.004-5.5013-0.98038zm4.828 16.341q1.6504 0.29412 2.6021-0.41349 1.0017-0.69869 1.3582-2.6992l0.48129-2.7007q0.33868-1.9005-0.20997-2.8754-0.49865-0.96607-1.949-1.2245l-2.5006-0.44563-1.7825 10.002z" fill="#c55852"/>
 <path id="path1009" d="m59.402 21.475q-3.6997 2.8023-6.1317 3.9441-2.432 1.1418-3.4391 0.69325-1.3847-0.61679 0.03113-3.7953 1.3738-3.0841 3.3483-5.1462t4.4206-3.2355q2.4286-1.2188 5.1888-1.5733 2.8057-0.37196 5.7647-0.07219 3.0045 0.28232 6.082 1.1629 3.0775 0.88054 6.1301 2.2403 3.5561 1.584 6.9054 3.7171 3.3633 2.1016 6.2471 4.5175 2.8838 2.416 5.1448 5.0448 2.275 2.5974 3.6546 5.173 1.425 2.5582 1.7798 4.9791 0.38626 2.4349-0.5249 4.4805-1.0794 2.4232-3.2007 4.3068-2.0899 1.8977-5.2108 2.8081-3.0754 0.89293-7.1468 0.55026-4.0399-0.32865-8.9913-2.421 3.1155 1.3878 4.9958 3.4321 1.8942 2.0129 2.7108 4.4132 0.83054 2.3688 0.56595 5.0795-0.25057 2.6792-1.3299 5.1024-0.88313 1.9826-2.3293 3.7899-1.4462 1.8073-3.3572 3.2188-1.911 1.4116-4.259 2.3646-2.3339 0.92153-5.052 1.1816-2.6867 0.27412-5.7015-0.23908-3.0288-0.48173-6.2703-1.9256-2.0456-0.91116-4.1852-2.2037-2.1537-1.261-4.2722-2.7704-2.1011-1.4639-4.0551-3.0886-1.954-1.6247-3.6142-3.2316-0.78304-0.61279-1.2791-1.3618-0.46462-0.73496 0.04002-1.8679 2.327-5.224 5.0178-10.588 2.7223-5.3496 5.9236-10.335 3.2153-5.0169 6.3662-8.3654 3.1509-3.3484 7.3682-5.9579 2.9213-0.54676 4.7465 0.26628 2.2973 1.0233 2.6899 4.2907-2.3167 1.3063-4.4206 3.2355-2.0724 1.9432-3.4344 3.5616-1.362 1.6184-3.0222 4.1601-1.6287 2.5557-3.0439 5.0555-0.81619 1.409-1.7551 3.1782-0.89343 1.7517-1.7588 3.4405-0.8654 1.6888-1.6993 3.3916-0.78844 1.6854-1.4893 3.2589-0.11214 0.25176-0.30839 0.69234-0.19625 0.44058-0.34358 0.94067-0.11586 0.5141-0.17221 0.97929-0.04233 0.43371 0.12532 0.73468 1.6393 1.4845 3.646 2.9063 2.0067 1.4218 4.2096 2.4031 2.675 1.1915 5.4729 1.6836 2.812 0.46056 5.3799-0.05501 2.582-0.54704 4.7136-2.1998 2.1771-1.6702 3.691-5.069 0.81303-1.8253 0.65337-3.3295-0.14564-1.5357-0.9141-2.8586-0.73699-1.3088-1.9743-2.4257-1.1919-1.1343-2.5342-2.1848-1.2969-1.068-2.5763-2.0904-1.2479-1.0084-2.1285-2.0796-0.83511-1.0886-1.149-2.2466-0.29984-1.1896 0.31694-2.5742 0.29438-0.66087 0.56759-1.1049 0.3187-0.46147 0.74211-0.65001 0.45488-0.17452 1.0914-0.07955 0.66802 0.10899 1.6751 0.55756 1.3532 0.60277 2.3986 1.2193 1.0909 0.59906 2.3811 1.1738 3.0211 1.3457 5.7667 1.7013 2.7911 0.33811 5.0512-0.16372 2.2916-0.48782 3.9472-1.7492 1.7011-1.2788 2.5562-3.1985 0.56072-1.2588 0.2995-2.6197-0.24721-1.3924-1.2045-2.7994-0.91179-1.4244-2.3938-2.8388-1.482-1.4144-3.3768-2.7487-1.8808-1.3658-4.094-2.5779-2.1992-1.2436-4.5594-2.2949-3.8079-1.6962-6.0285-2.3836-3.0354-0.97495-5.8614-1.404-2.7805-0.44654-5.2083-0.24567-2.3963 0.21489-4.0061 1.1195z" fill="#c7ebf6"/>
 <path id="path1011" d="m95.199 85.466q-1.769-0.57594-2.8073-2.6169-0.99494-2.063-1.2882-5.057-0.26054-2.9833 0.20419-6.6362 0.50814-3.675 1.7454-7.475 0.94924-2.9155 2.4843-6.1837 1.5458-3.301 3.5486-6.6705 2.0029-3.3695 4.3112-6.6759 2.3411-3.2956 4.8483-6.2111 2.5399-2.9048 5.1598-5.2764 2.6306-2.4043 5.169-3.9691 2.5491-1.5975 4.9526-2.1918 2.4036-0.59422 4.4673 0.07772 1.4086 0.45862 2.1125 1.4124 0.71458 0.92105 0.89742 2.14 0.18283 1.2189-0.0579 2.626-0.19731 1.385-0.64527 2.7608-1.0026 3.0793-2.7685 6.055-1.7225 2.9536-3.9904 5.802-2.2245 2.8264-4.8528 5.5575t-5.377 5.3868q-2.738 2.623-5.4874 5.1697-2.706 2.5247-5.1728 4.9823-0.27044 0.27426-0.63764 0.7344-0.33445 0.47081-0.70089 1.0399-0.35577 0.53632-0.74354 1.1709t-0.69936 1.2578l-0.14932 0.45862q-0.2773 0.85172-0.38015 1.724-0.0594 0.8502-0.0107 1.5907 0.0594 0.70774 0.22626 1.1968 0.1775 0.45633 0.43957 0.54166 0.62241 0.20265 1.4939 0.19656 0.90428 0.0046 1.9274-0.13331 1.0666-0.15998 2.1979-0.40757 1.142-0.28035 2.2184-0.58203 2.5117-0.70392 5.3587-1.7697l0.44641 7.7538q-3.5981 1.1473-6.9814 1.8573-1.4688 0.28263-3.0359 0.53327-1.5236 0.22854-3.0374 0.31539-1.5138 0.08684-2.898-0.0015-1.3736-0.12113-2.4874-0.48376zm8.5653-26.196q2.3274-2.1407 5.0319-4.8833 2.7372-2.7319 5.3419-5.7243 2.6047-2.9924 4.8056-6.0801 2.2116-3.1204 3.477-6.0054 0.3093-0.94999 0.4571-1.6265 0.19122-0.69859-0.0709-0.78392-0.94999-0.3093-2.4691 0.57288-1.4757 0.8601-3.272 2.594-1.7636 1.7446-3.6857 4.1984-1.8893 2.4645-3.6994 5.3533-1.8101 2.8888-3.3566 6.0809-1.5358 3.1593-2.5598 6.3041z" fill="#c7ebf6"/>
 <path id="path1013" d="m118.57 91.521q-3.1674-0.67426-5.316-2.3292-2.1148-1.6478-3.2897-3.9056-1.1677-2.2915-1.4384-4.9908-0.22986-2.7259 0.36549-5.5226 0.40169-1.887 1.6616-4.3309 1.2671-2.4777 2.4388-4.3416 1.2054-1.8568 2.7384-3.4325 1.5402-1.6094 3.3506-2.6681 1.8513-1.0853 3.9104-1.4923 2.1-0.43354 4.425 0.06139 1.887 0.40168 3.3753 1.3525t2.4309 2.3138q0.98352 1.3365 1.3275 3.03 0.34396 1.6935-0.0649 3.6141-0.44472 2.0891-2.3786 4.3896-1.9002 2.3077-4.1142 3.7736-2.2141 1.4659-5.0497 2.3769-2.8019 0.91813-5.9056 1.1028 0.31177 1.0174 0.6544 1.7243 0.37633 0.71412 0.81004 1.1587t0.94415 0.6941q0.54414 0.25672 1.1844 0.39301 2.0218 0.43038 4.4178 0.09509 2.4298-0.32812 4.8108-1.0893 2.3811-0.76116 4.5693-1.7747 2.1954-1.0472 3.7821-2.0479l3.3856 5.4406q-3.618 2.4351-7.456 4.0837-1.6641 0.70244-3.5569 1.321-1.8591 0.62571-3.8774 1.0062-1.9774 0.35397-4.0659 0.40251-2.0476 0.02202-4.0694-0.40836zm-1.1103-16.791q1.213 0.25823 2.7574-0.04704 1.5852-0.33179 3.0063-1.0507 1.4548-0.71178 2.9856-2.1118t1.7604-2.4783q0.32278-1.5163-0.042-2.6154-0.33112-1.092-1.1398-1.2641-1.4489-0.30844-2.6083 0.0083-1.1256 0.32395-2.0198 1.0494-0.85324 0.69894-1.528 1.7177-0.63388 0.9922-1.551 2.4877-0.88343 1.5026-1.1732 2.5329-0.28975 1.0302-0.44755 1.7715z" fill="#c7ebf6"/>
 <path id="path1015" d="m134.44 87.295q0.0294-2.2736 0.34324-5.2325 0.31431-2.9934 0.77353-6.5362 0.45967-3.5773 1.0133-6.4298 0.55367-2.8525 1.0622-4.8787 0.3994-1.5797 1.4811-2.6338 1.1161-1.0536 2.9763-1.0296 1.8602 0.02403 2.5689 1.1702 0.70872 1.1461 0.68424 3.0408-7e-3 0.51672-0.12159 1.411-0.11447 0.85987-0.30051 1.9255-0.15115 1.0317-0.33808 2.1662-0.18648 1.1001-0.37741 2.5447-0.15605 1.4106-0.26874 2.1327-0.11224 0.68763-0.11536 0.92876l0.68896 0.0089q0.21159-0.37626 0.6701-1.1972 0.45895-0.85542 1.065-2.4325t1.2762-2.7743q0.70499-1.2312 1.3048-2.326 0.60031-1.1292 1.0937-1.9842 0.4934-0.85497 0.73988-1.2652 1.1264-1.846 2.5476-2.5167 1.4213-0.67071 3.1437-0.64846 1.7224 0.02226 2.7027 1.482 1.0148 1.4602 0.98181 4.0093-5e-3 0.37893-0.1887 1.2724-0.14937 0.89387-0.40653 2.1309t-0.59256 3.1966q-0.30096 1.96-0.56213 3.507-0.26116 1.547-0.45299 3.0605-0.15737 1.5139-0.17384 2.7885-0.0276 2.1358 0.47132 3.5204 0.53336 1.385 1.6702 1.3997 0.41338 0.0053 1.1752-0.2949 1.1421-0.39869 1.4562-0.70472 1.5308-1.1516 1.5993-1.1163 0.1029 0.03578 2.3258-1.3481 2.7786-1.7212 6.6352-4.221l-0.13415 7.7159-1.7393 1.2868q-0.20891 0.16957-3.2613 1.7495-4.4052 2.2859-5.5137 2.754-2.7025 1.171-3.3593 1.3347-1.7295 0.52891-3.6242 0.50443-1.8946-0.02448-3.1685-2.7628-1.239-2.7723-1.1709-8.0429 0.0267-2.0669 0.333-4.4402 0.30675-2.4078 0.75573-5.1583l-0.55117-0.0071-9.2568 17.796q-0.7421 1.4375-1.5751 1.9091-0.86788 0.50559-2.0047 0.4909-1.4124-0.01825-2.266-0.61499-0.85319-0.63119-1.3226-1.6364-0.43447-1.0392-0.59024-2.316-0.12088-1.3108-0.10307-2.6887z" fill="#c7ebf6"/>
 <path id="path1017" d="m175.81 62.811q-1.8456 1.726-3.0163 4.0004-1.148 2.2312-1.4228 5.4182-0.2419 3.1767-0.20201 5.4005 0.0399 2.2238 0.54975 3.8692 0.20394 0.65814 0.53952 1.2755 0.36847 0.60716 0.92652 1.0113 0.55804 0.40415 1.384 0.50889t1.9777-0.25216q0.59233-0.18355 1.06-0.65306 0.50056-0.47971 0.88431-1.1036 0.37356-0.65676 0.65072-1.3919 0.29986-0.7782 0.4908-1.5587 0.45234-1.7993 0.61777-3.9424-0.24148-0.43011-0.61321-1.3969-0.38192-0.99973-1.047-3.0298-0.67533-2.063-1.1161-3.3691t-0.8102-2.3818q-0.33651-1.0859-0.58356-1.7668-0.24704-0.68086-0.26975-0.63775zm28.86 13.058q-1.7756 2.5339-3.6077 4.6525-0.77076 0.88805-1.6402 1.8067-0.87968 0.88573-1.757 1.6625-0.88756 0.7439-1.783 1.346-0.87274 0.55898-1.6954 0.8139-0.4607 0.14276-1.4433 0.23084-0.94967 0.07788-2.2192-0.17795-1.2468-0.29893-2.6896-1.1142-1.4099-0.82545-2.7911-2.4893-0.85047 1.562-1.8961 3.0762-1.0229 1.4711-2.259 2.7198-1.2032 1.2384-2.564 2.2011-1.3381 0.91957-2.8518 1.3886-2.139 0.66281-4.004 0.23087-1.8322-0.44214-3.3543-1.6296-1.4994-1.2305-2.6275-3.0089-1.0952-1.7886-1.7377-3.8617-0.65261-2.1061-0.78891-4.4082-0.11359-2.3452 0.28451-4.6687 0.42081-2.3666 0.98808-4.9588 0.60018-2.6025 2.1125-5.0548 1.5452-2.4625 3.4645-4.0671t4.3488-2.6099q-1.2065-4.2427-1.5681-7.7374t-0.4279-7.5497q-0.0663-4.055 0.40266-7.6628 0.5019-3.618 1.5322-6.4619 1.0303-2.844 2.607-4.7392 1.5666-1.9281 3.6726-2.5807 1.5466-0.47926 2.8875 0.0069 1.3307 0.45327 2.4069 1.5985 1.0989 1.1022 1.9457 2.7874 0.83662 1.6523 1.4178 3.528 0.3569 1.1518 0.63547 2.3999 1.01 4.7725 1.1431 9.2757 0.12288 4.4703-0.2103 8.8655-0.33318 4.3952-0.95002 8.8062-0.93892 6.747-1.0432 9.0876-0.0218 0.51169 0.0176 1.2208 0.0394 0.70913 0.1196 1.5499 0.1029 0.79766 0.25911 1.6509 0.14601 0.82036 0.38054 1.5772 0.29572 0.95431 0.65957 1.7793 0.39675 0.8148 0.87415 1.4243 0.4672 0.57657 1.0174 0.83889 0.58306 0.25213 1.2412 0.04819 0.62524-0.19375 1.2778-0.64843 0.67529-0.49779 1.3654-1.1805 0.69011-0.68272 1.3496-1.4642 0.68224-0.82455 1.2987-1.6287 1.402-1.8771 2.8564-4.1672zm-20.277-40.063q-0.51636-2.3647-0.93444-3.7139-0.55064-1.777-1.0939-2.3661-0.5103-0.59928-1.1026-0.41573-1.053 0.32631-1.4905 1.9406-0.4477 1.5814-0.46343 3.8585-0.0157 2.2771 0.26565 4.931 0.28137 2.6539 0.67629 5.0923 0.39493 2.4384 0.77872 4.3753t0.56271 2.7471q0.36803 1.6532 0.73837 3.1976 0.39306 1.5012 0.74764 2.7619 0.34439 1.2278 0.62991 2.1492t0.43847 1.415l0.10198 0.32907q0.55008-4.8592 0.8142-9.5937 0.0973-2.0138 0.14362-4.1922 0.069-2.2215 6e-3 -4.4022-0.0626-2.1807-0.26935-4.2446-0.17383-2.0741-0.54974-3.8692z" fill="#c7ebf6"/>
 <path id="path1019" d="m215.5 73.912q-2.7487 1.7123-5.4442 2.0114-2.6662 0.2809-5.0789-0.52972-2.4308-0.83986-4.4988-2.5958-2.0569-1.8034-3.5688-4.2304-1.0201-1.6375-1.8086-4.2716-0.80676-2.6634-1.2564-4.8186-0.4204-2.1734-0.40984-4.3718-8e-3 -2.2276 0.56135-4.2462 0.58004-2.0661 1.7804-3.7879 1.2114-1.7693 3.229-3.0262 1.6375-1.0201 3.369-1.3681 1.7315-0.34801 3.356-0.0206 1.6356 0.27996 3.0583 1.2607 1.4228 0.98079 2.461 2.6475 1.1294 1.813 1.3331 4.8114 0.23296 2.9802-0.34421 5.5721-0.57716 2.5919-1.987 5.2155-1.3806 2.6053-3.4874 4.8919 0.93044 0.51628 1.6677 0.7876 0.76651 0.25311 1.3873 0.27228 0.62078 0.01918 1.1615-0.15531 0.56996-0.1927 1.1256-0.5388 1.7545-1.0929 3.2472-2.997 1.522-1.9222 2.7084-4.1225t2.0589-4.4485q0.85424-2.2775 1.3024-4.099l6.213 1.5685q-0.9156 4.2639-2.5354 8.1142-0.71091 1.6605-1.6447 3.4193-0.90457 1.7406-2.0939 3.415-1.1783 1.627-2.6485 3.1111-1.4592 1.4367-3.2137 2.5296zm-12.45-11.321q1.0527-0.65577 1.9529-1.9472 0.91127-1.3389 1.4357-2.8426 0.55368-1.522 0.68455-3.5924t-0.45203-3.0061q-0.81971-1.3159-1.8451-1.8542-0.99612-0.55655-1.6979-0.11937-1.2574 0.78328-1.8724 1.8158-0.58579 1.0143-0.72625 2.1571-0.12943 1.0953 0.0916 2.2971 0.23201 1.1543 0.60926 2.8676 0.4065 1.695 0.9127 2.6379 0.50621 0.94291 0.90696 1.5862z" fill="#c7ebf6"/>
 <path id="path1021" d="m224.26 58.82q-0.89619-1.2225-1.9386-2.9359-1.0628-1.7412-2.1644-3.7101-1.0738-1.9893-2.1329-4.075-1.0516-2.1338-2.0994-4.6121-1.0682-2.5061-1.7458-4.1879-0.67756-1.6818-0.98849-2.8635-0.22581-0.77422-0.26831-1.2984-0.0425-0.52415 0.0928-0.92233 0.1427-0.44633 0.51874-0.80742 0.38346-0.40924 1.0225-0.8777 0.72241-0.52957 1.1725-0.73136 0.45751-0.24995 0.85569-0.11467 0.37781 0.10749 0.77221 0.58726 0.4222 0.4594 1.0536 1.3207 0.75361 1.0281 1.9997 3.0193 1.2461 1.9912 2.3404 3.3675l0.30564-0.22405q-0.25902-1.5188-0.74937-3.9358-0.49036-2.4171-0.44927-4.284 0.0411-1.8669 0.6174-3.5281 0.55594-1.689 2.0841-2.8092 0.52792-0.38699 1.1706-0.55912 0.62234-0.19991 1.228-0.13127 0.63341 0.04827 1.2223 0.38546 0.56854 0.3094 1.0166 0.92068 0.34626 0.47235 0.83873 1.4355 0.47212 0.9354 1.1645 2.5209 0.69238 1.5855 1.2052 2.5765 0.49248 0.96318 0.92021 1.5467 0.73324 1.0003 1.4166 1.5245 0.68332 0.52427 1.2945 0.717 0.61857 0.14458 1.1298 0.02614 0.53899-0.13881 0.98355-0.46469 1.2503-0.91656 2.1767-2.4499 0.92634-1.5334 1.5286-3.0427 0.71523-1.7631 1.212-3.7077l4.3493 6.8073q-0.37616 1.0019-0.86534 2.2575-0.48919 1.2556-1.158 2.5575-0.66143 1.2537-1.5358 2.45-0.86699 1.1481-2.034 2.0036-2.0839 1.5276-3.973 1.631-1.9095 0.07558-3.6578-0.73596-1.7686-0.83933-3.3722-2.2694-1.624-1.4579-3.1295-3.0454l-0.44456 0.32589 5.19 17.511q0.40536 1.3688 0.57371 2.356 0.17578 0.93904 0.14046 1.6484-0.0353 0.70935-0.30953 1.2094-0.29457 0.47223-0.7947 0.83885-1.1392 0.83508-2.1801 0.87193-1.0612 0.0091-2.0409-0.51156-0.97224-0.56877-1.8648-1.495-0.88512-0.97437-1.6998-2.0858z" fill="#c7ebf6"/>
 <path id="path1054" d="m74.638 91.808 5.3399 1.6465-4.4156 14.321 11.212-12.225 5.3399 1.6465-10.206 10.515-0.17436 23.496-5.5826-1.7213 0.15534-16.538-3.4681 3.6619-3.3379 10.826-5.3399-1.6465z" fill="#edc3a2"/>
 <path id="path1056" d="m94.329 97.761 14.799 3.6417-1.2139 4.9328-9.3724-2.3064-2.2457 9.1258 7.4486 1.833-1.2139 4.9328-7.4486-1.833-2.6099 10.606 9.3724 2.3064-1.2139 4.9328-14.799-3.6417z" fill="#edc3a2"/>
 <path id="path1058" d="m112.96 122.9-3.1829-21.273 5.8569 1.0114 1.5329 13.514 0.10012 0.0173 5.976-12.217 5.3563 0.92492-10.133 18.974-2.576 14.918-5.5065-0.95086z" fill="#edc3a2"/>
 <path id="path1060" d="m128.85 105.11 7.9606 0.48861 1.9901 25.621 0.10141 6e-3 5.1085-25.185 7.9606 0.4886-2.1785 35.493-5.2733-0.32366 1.6494-26.873-0.10141-6e-3 -5.7058 26.624-4.6648-0.28632-2.4069-27.122-0.10141-6e-3 -1.6494 26.873-4.8676-0.29877z" fill="#edc3a2"/>
 <path id="path1062" d="m156.98 106.04 7.5449-0.60563 8.6179 34.983-5.5701 0.44712-1.5777-6.9573 8e-3 0.10128-6.3296 0.50808-0.45588 7.0186-5.165 0.4146zm7.9787 23.21-3.8876-17.321-0.10128 8e-3 -1.0242 17.716z" fill="#edc3a2"/>
 <path id="path1064" d="m169.41 105.02 8.0213-1.8398q4.0602-0.93129 6.59 0.7817 2.5298 1.713 3.4952 5.9217l0.78364 3.4165q0.96536 4.2087-0.56501 6.853-1.5304 2.6443-5.5905 3.5756l-2.5747 0.59057 3.2368 14.112-5.4466 1.2493zm11.599 13.757q1.3369-0.30664 1.8102-1.197 0.52285-0.90171 0.11399-2.6842l-0.94264-4.1097q-0.40886-1.7825-1.2724-2.3662-0.81404-0.59507-2.1509-0.28842l-2.5747 0.59057 2.4418 10.646z" fill="#edc3a2"/>
 <path id="path1066" d="m198.08 101.59-5.2899 2.4792-2.1558-4.5999 15.64-7.3297 2.1558 4.5999-5.2899 2.4792 12.935 27.599-5.0599 2.3714z" fill="#edc3a2"/>
 <path id="path1068" d="m206.45 91.87 7.059-4.3285q3.6811-2.2572 6.4322-1.5606 2.7246 0.6533 4.9022 4.2044l1.1419 1.8622q2.8945 4.7204 0.54657 7.8883l0.0531 0.08661q2.0509-0.54254 3.7264 0.63492 1.7188 1.1509 3.3652 3.8359l3.2663 5.3267q0.79666 1.2992 1.3878 2.0689 0.56461 0.72641 1.3891 1.2935l-4.8503 2.9742q-0.71128-0.57688-1.1962-1.1734-0.48494-0.59649-1.5206-2.2854l-3.3991-5.5432q-1.2747-2.0787-2.4721-2.4766-1.1542-0.42449-2.7998 0.58461l-1.6456 1.0091 7.9666 12.992-4.7637 2.9211zm14.463 9.0087q1.4291-0.87632 1.6706-2.0374 0.28477-1.1877-0.77744-2.9199l-1.434-2.3386q-1.0091-1.6456-2.0668-2.0101-1.0144-0.39099-2.2703 0.37911l-2.1653 1.3278 5.3111 8.6613z" fill="#edc3a2"/>
 <path id="path1070" d="m227.32 78.456 6.2752-4.2326 24.686 26.242-4.6327 3.1248-4.7909-5.2859 0.0568 0.08423-5.2644 3.5509 3.0494 6.3379-4.2957 2.8975zm18.348 16.301-11.892-13.18-0.0842 0.05681 7.8073 15.935z" fill="#edc3a2"/>
 <path id="path1072" d="m243.11 67.911 4.7508-2.9421 18.723 30.232-4.7508 2.9421z" fill="#edc3a2"/>
 <path id="path1074" d="m257.15 59.369 6.4259-2.8024 13.491 17.338 0.0931-0.04061-8.5086-19.511 4.5633-1.9901 14.215 32.595-5.2618 2.2947-16.523-21.114-0.0931 0.04061 10.377 23.795-4.5633 1.9901z" fill="#edc3a2"/>
 <path id="path1076" d="m288.94 48.093 15.136-1.7798 0.59326 5.0452-9.586 1.1272 1.0975 9.3337 7.6183-0.89582 0.59326 5.0452-7.6183 0.89582 1.2755 10.847 9.586-1.1272 0.59326 5.0452-15.136 1.7798z" fill="#edc3a2"/>
 <path id="path1078" d="m319.36 46.935 8.152 1.4528q4.251 0.75757 5.845 3.1056 1.6029 2.2981 0.87205 6.399l-0.38324 2.1505q-0.97148 5.4513-4.8308 6.26l-0.0178 0.10002q1.8935 0.95665 2.364 2.9497 0.52044 2.002-0.0321 5.1027l-1.0962 6.1515q-0.26738 1.5004-0.3367 2.4684-0.0604 0.91804 0.17927 1.8896l-5.6014-0.99821q-0.14856-0.90368-0.11489-1.6717 0.0337-0.76801 0.38125-2.7185l1.1408-6.4015q0.42781-2.4006-0.20305-3.4934-0.58084-1.0839-2.4813-1.4226l-1.9005-0.33868-2.6738 15.004-5.5013-0.98038zm4.828 16.341q1.6504 0.29412 2.6021-0.41349 1.0017-0.69869 1.3582-2.6992l0.48128-2.7007q0.33868-1.9005-0.20997-2.8754-0.49865-0.96607-1.949-1.2245l-2.5006-0.44563-1.7825 10.002z" fill="#edc3a2"/>
</svg>
